<svg width="28" height="25" viewBox="0 0 28 25" fill="none" xmlns="http://www.w3.org/2000/svg">
<path d="M6.65434 8.02554C7.86934 8.02554 8.85754 7.03734 8.85754 5.82234C8.85754 4.60764 7.86934 3.61914 6.65434 3.61914C5.43964 3.61914 4.45144 4.60734 4.45144 5.82234C4.45144 7.03734 5.43964 8.02554 6.65434 8.02554ZM6.65434 4.51914C6.99985 4.51954 7.33109 4.65697 7.5754 4.90128C7.81971 5.14559 7.95714 5.47683 7.95754 5.82234C7.95722 6.16787 7.81982 6.49916 7.57549 6.74349C7.33116 6.98782 6.99987 7.12522 6.65434 7.12554C5.93584 7.12554 5.35144 6.54084 5.35144 5.82234C5.35144 5.10384 5.93584 4.51914 6.65434 4.51914ZM10.2309 14.6396C10.1947 14.6315 10.1579 14.6265 10.1208 14.6246C10.0379 14.6141 9.95406 14.6118 9.87064 14.6177L5.91244 14.6198C5.79309 14.6198 5.67863 14.6673 5.59424 14.7516C5.50985 14.836 5.46244 14.9505 5.46244 15.0698C5.46244 15.1892 5.50985 15.3036 5.59424 15.388C5.67863 15.4724 5.79309 15.5198 5.91244 15.5198H9.80614C9.84154 15.5198 9.87634 15.5183 9.91114 15.5168C9.93874 15.5156 9.96514 15.512 9.98944 15.515C10.0141 15.5203 10.0392 15.5236 10.0644 15.5246C10.0953 15.5312 10.1415 15.5393 10.197 15.5393C10.4544 15.5393 10.6641 15.7487 10.6641 16.0061V23.4827C10.6641 23.7401 10.4547 23.9495 10.197 23.9495C10.0733 23.9493 9.95477 23.9 9.86733 23.8125C9.77989 23.725 9.7307 23.6064 9.73054 23.4827V17.6852C9.73054 17.5659 9.68313 17.4514 9.59874 17.367C9.51434 17.2827 9.39988 17.2352 9.28054 17.2352H4.03144C3.80401 17.235 3.58595 17.1446 3.42511 16.9838C3.26426 16.823 3.17376 16.605 3.17344 16.3775C3.17344 16.3274 3.18154 16.2791 3.18964 16.2311C3.19714 16.1864 3.19774 16.1408 3.19174 16.0958L3.18634 16.0595C3.18064 16.0193 3.17344 15.9788 3.17344 15.9368V10.0523C3.17344 9.42114 3.68704 8.90784 4.31794 8.90784C4.94884 8.90784 5.46214 9.42114 5.46214 10.0523V11.9858C5.46214 12.1052 5.50955 12.2196 5.59394 12.304C5.67833 12.3884 5.79279 12.4358 5.91214 12.4358H9.98554C10.0628 12.4393 10.1357 12.4724 10.1892 12.5283C10.2426 12.5842 10.2724 12.6585 10.2724 12.7358C10.2724 12.8132 10.2426 12.8875 10.1892 12.9434C10.1357 12.9993 10.0628 13.0324 9.98554 13.0358H6.66214C6.60784 13.0358 6.55414 13.0457 6.50344 13.0649L5.34334 13.5023C5.32473 13.5094 5.30659 13.5176 5.28904 13.5269L4.79404 13.793L4.80844 10.5056C4.80892 10.3863 4.76201 10.2717 4.67802 10.187C4.59403 10.1023 4.47983 10.0544 4.36054 10.0538H4.35844C4.2394 10.0538 4.12521 10.101 4.04087 10.185C3.95653 10.269 3.90891 10.383 3.90844 10.502L3.89074 14.5457C3.8903 14.6238 3.91018 14.7006 3.94841 14.7686C3.98665 14.8366 4.04192 14.8935 4.10881 14.9337C4.17569 14.9739 4.25188 14.996 4.32989 14.9978C4.4079 14.9997 4.48504 14.9812 4.55374 14.9441L5.68864 14.3339L6.74434 13.9361H9.98554C10.6473 13.9361 11.1855 13.3979 11.1855 12.7361C11.1855 12.0743 10.6473 11.5361 9.98554 11.5361H6.36214V10.0526C6.36214 8.92524 5.44504 8.00814 4.31794 8.00814C3.19084 8.00814 2.27344 8.92524 2.27344 10.0526V15.9371C2.27344 16.0109 2.28094 16.0826 2.29084 16.154C2.28124 16.223 2.27344 16.2971 2.27344 16.3778C2.27407 16.8439 2.4595 17.2906 2.78906 17.6201C3.11862 17.9496 3.56541 18.135 4.03144 18.1355H8.83024V23.4827C8.83056 23.8451 8.97462 24.1925 9.23081 24.4488C9.487 24.705 9.83439 24.8491 10.1967 24.8495C10.5592 24.8492 10.9067 24.7051 11.163 24.4489C11.4193 24.1926 11.5634 23.8452 11.5638 23.4827V16.0058C11.5633 15.6494 11.4238 15.3072 11.1749 15.052C10.9259 14.7969 10.5873 14.6489 10.2309 14.6396Z" fill="white"/>
<path d="M7.77074 18.5448H1.73984V9.44486C1.73984 9.32551 1.69243 9.21105 1.60804 9.12666C1.52365 9.04227 1.40919 8.99486 1.28984 8.99486C1.1705 8.99486 1.05604 9.04227 0.971646 9.12666C0.887254 9.21105 0.839844 9.32551 0.839844 9.44486V18.9948C0.839844 19.1141 0.887254 19.2286 0.971646 19.313C1.05604 19.3973 1.1705 19.4448 1.28984 19.4448H1.85384V24.399C1.85384 24.4581 1.86548 24.5166 1.8881 24.5712C1.91071 24.6258 1.94386 24.6754 1.98565 24.7172C2.02743 24.7589 2.07704 24.7921 2.13164 24.8147C2.18623 24.8373 2.24475 24.849 2.30384 24.849C2.36294 24.849 2.42145 24.8373 2.47605 24.8147C2.53065 24.7921 2.58026 24.7589 2.62204 24.7172C2.66383 24.6754 2.69698 24.6258 2.71959 24.5712C2.7422 24.5166 2.75384 24.4581 2.75384 24.399V19.4448H6.05384V24.399C6.05384 24.4581 6.06548 24.5166 6.0881 24.5712C6.11071 24.6258 6.14386 24.6754 6.18565 24.7172C6.22743 24.7589 6.27704 24.7921 6.33164 24.8147C6.38623 24.8373 6.44475 24.849 6.50384 24.849C6.56294 24.849 6.62146 24.8373 6.67605 24.8147C6.73065 24.7921 6.78026 24.7589 6.82204 24.7172C6.86383 24.6754 6.89698 24.6258 6.91959 24.5712C6.9422 24.5166 6.95384 24.4581 6.95384 24.399V19.4448H7.77104C7.83014 19.4447 7.88865 19.4331 7.94324 19.4104C7.99783 19.3878 8.04743 19.3546 8.0892 19.3128C8.13097 19.271 8.1641 19.2214 8.1867 19.1668C8.20929 19.1122 8.22091 19.0537 8.22089 18.9946C8.22087 18.9355 8.20922 18.877 8.18658 18.8224C8.16395 18.7678 8.13079 18.7182 8.08899 18.6765C8.04719 18.6347 7.99757 18.6015 7.94296 18.579C7.88836 18.5564 7.82984 18.5447 7.77074 18.5448ZM25.7302 16.3773C25.7302 16.2966 25.7227 16.2225 25.7128 16.1535C25.7224 16.0824 25.7302 16.0104 25.7302 15.9366V10.0521C25.7302 8.92466 24.8128 8.00756 23.6857 8.00756C22.5586 8.00756 21.6415 8.92466 21.6415 10.0521V14.6193H18.1975L18.1327 14.6172C18.0495 14.6119 17.966 14.6142 17.8831 14.6241C17.846 14.6258 17.809 14.6308 17.7727 14.6391C17.4164 14.6483 17.0777 14.7962 16.8287 15.0514C16.5798 15.3065 16.4403 15.6488 16.4398 16.0053V23.4819C16.4403 23.8443 16.5845 24.1917 16.8408 24.4479C17.0971 24.7041 17.4445 24.8483 17.8069 24.8487C18.1693 24.8483 18.5167 24.7041 18.7729 24.4479C19.0291 24.1916 19.1731 23.8442 19.1734 23.4819V18.135H23.9722C24.4383 18.1345 24.8851 17.9492 25.2147 17.6196C25.5443 17.2901 25.7297 16.8433 25.7302 16.3773ZM18.7231 17.235C18.6038 17.235 18.4893 17.2824 18.4049 17.3668C18.3206 17.4511 18.2731 17.5656 18.2731 17.685V23.4822C18.2688 23.6031 18.2177 23.7176 18.1307 23.8016C18.0436 23.8856 17.9273 23.9325 17.8063 23.9325C17.6854 23.9325 17.5691 23.8856 17.482 23.8016C17.395 23.7176 17.3439 23.6031 17.3395 23.4822V16.0056C17.3395 15.7482 17.5489 15.5388 17.8066 15.5388C17.8597 15.5388 17.9041 15.5313 17.938 15.5244C17.9701 15.5238 18.0031 15.5202 18.0307 15.5145L18.0925 15.5166C18.127 15.5181 18.1618 15.5196 18.1975 15.5196H22.0912L22.0936 15.5193C22.1374 15.5193 22.1791 15.5109 22.2193 15.4989C22.2241 15.4977 22.2286 15.4983 22.2331 15.4968L23.8045 14.9748C23.8946 14.9449 23.9729 14.8874 24.0283 14.8103C24.0836 14.7332 24.1132 14.6406 24.1126 14.5458L24.0949 10.5021C24.0944 10.383 24.0467 10.2691 23.9624 10.1851C23.8781 10.1011 23.764 10.0539 23.6449 10.0539H23.6428C23.5235 10.0544 23.4094 10.1023 23.3254 10.187C23.2414 10.2718 23.1945 10.3864 23.1949 10.5057L23.2111 14.2233L22.5412 14.4459V10.0521C22.5412 9.42086 23.0545 8.90756 23.6854 8.90756C24.3163 8.90756 24.8299 9.42086 24.8299 10.0521V15.9369C24.8299 15.9789 24.8227 16.0191 24.817 16.0596L24.8116 16.0959C24.8053 16.1409 24.8059 16.1865 24.8137 16.2312C24.8215 16.2792 24.8299 16.3272 24.8299 16.3776C24.8296 16.605 24.7391 16.823 24.5783 16.9838C24.4174 17.1446 24.1994 17.235 23.9719 17.2353L18.7231 17.235ZM23.6449 7.37906C24.8596 7.37906 25.8478 6.39086 25.8478 5.17586C25.8478 3.96116 24.8596 2.97266 23.6449 2.97266C22.4299 2.97266 21.4417 3.96086 21.4417 5.17586C21.442 6.39056 22.4302 7.37906 23.6449 7.37906ZM23.6449 3.87266C23.9904 3.87305 24.3216 4.01049 24.5659 4.25481C24.8102 4.49913 24.9475 4.83038 24.9478 5.17586C24.9475 5.52134 24.8102 5.85258 24.5659 6.0969C24.3216 6.34122 23.9904 6.47866 23.6449 6.47906C23.2994 6.47866 22.9682 6.34123 22.7239 6.09692C22.4796 5.85261 22.3421 5.52136 22.3417 5.17586C22.3422 4.83037 22.4797 4.49917 22.724 4.25488C22.9683 4.01059 23.2995 3.87313 23.6449 3.87266Z" fill="white"/>
<path d="M26.71 8.99488C26.5906 8.99488 26.4762 9.04229 26.3918 9.12668C26.3074 9.21107 26.26 9.32553 26.26 9.44488V18.5448H20.2291C20.1097 18.5448 19.9953 18.5922 19.9109 18.6766C19.8265 18.761 19.7791 18.8754 19.7791 18.9948C19.7791 19.1141 19.8265 19.2286 19.9109 19.313C19.9953 19.3974 20.1097 19.4448 20.2291 19.4448H21.0463V24.399C21.0463 24.5183 21.0937 24.6328 21.1781 24.7172C21.2625 24.8016 21.3769 24.849 21.4963 24.849C21.6156 24.849 21.7301 24.8016 21.8145 24.7172C21.8989 24.6328 21.9463 24.5183 21.9463 24.399V19.4448H25.2463V24.399C25.2463 24.5183 25.2937 24.6328 25.3781 24.7172C25.4625 24.8016 25.5769 24.849 25.6963 24.849C25.8156 24.849 25.9301 24.8016 26.0145 24.7172C26.0989 24.6328 26.1463 24.5183 26.1463 24.399V19.4448H26.7103C26.8296 19.4448 26.9441 19.3974 27.0285 19.313C27.1129 19.2286 27.1603 19.1141 27.1603 18.9948V9.44488C27.1602 9.32551 27.1127 9.21105 27.0283 9.12667C26.9438 9.04228 26.8294 8.99488 26.71 8.99488ZM20.3428 11.8056C20.3458 11.7846 20.3476 11.7633 20.3476 11.742L20.3596 3.03988L20.3599 3.03838V2.92918C20.3599 2.80978 20.3125 2.69548 20.2282 2.61088L18.2995 0.682481C18.2577 0.640701 18.208 0.607566 18.1534 0.584969C18.0988 0.562371 18.0403 0.550755 17.9812 0.550781H12.9382C12.5041 0.551178 12.088 0.723735 11.781 1.03059C11.474 1.33745 11.3013 1.75354 11.3008 2.18758V11.5674C11.3013 12.0014 11.474 12.4175 11.781 12.7244C12.088 13.0312 12.5041 13.2038 12.9382 13.2042H18.7231C19.5301 13.2036 20.2261 12.6027 20.3428 11.8056ZM18.9325 2.58808H17.8312V1.48678L18.9325 2.58808ZM12.2008 11.5671V2.18728C12.2011 1.99186 12.2789 1.80455 12.4171 1.66642C12.5554 1.5283 12.7428 1.45064 12.9382 1.45048H16.9315V3.03808C16.9315 3.15743 16.9789 3.27189 17.0633 3.35628C17.1477 3.44067 17.2621 3.48808 17.3815 3.48808H19.4602V7.86808L19.4476 11.703C19.4153 11.8716 19.3254 12.0237 19.1933 12.1332C19.0611 12.2428 18.895 12.303 18.7234 12.3036H12.9382C12.7428 12.3035 12.5554 12.2259 12.4172 12.0878C12.2789 11.9498 12.2011 11.7625 12.2008 11.5671Z" fill="white"/>
<path d="M13.6898 6.24349C13.7388 6.28884 13.7972 6.32271 13.8608 6.34266C13.9245 6.36261 13.9918 6.36813 14.0579 6.35882C14.124 6.34951 14.1871 6.32561 14.2428 6.28885C14.2985 6.25209 14.3453 6.20339 14.3798 6.14629L15.0107 5.10769C15.0727 5.00565 15.0916 4.88317 15.0633 4.76719C15.0349 4.6512 14.9617 4.55123 14.8597 4.48924C14.7576 4.42726 14.6351 4.40836 14.5191 4.43668C14.4032 4.46501 14.3032 4.53825 14.2412 4.64029L13.8962 5.20879L13.8182 5.13679C13.7297 5.06113 13.6153 5.02269 13.4991 5.02955C13.3828 5.03641 13.2738 5.08804 13.1948 5.1736C13.1158 5.25915 13.073 5.37198 13.0754 5.4884C13.0778 5.60483 13.1252 5.71579 13.2077 5.79799L13.6898 6.24349ZM18.086 4.94389H16.07C16.0109 4.94389 15.9524 4.95553 15.8978 4.97815C15.8432 5.00076 15.7936 5.03391 15.7518 5.0757C15.71 5.11748 15.6769 5.16709 15.6543 5.22169C15.6316 5.27628 15.62 5.3348 15.62 5.39389C15.62 5.45299 15.6316 5.51151 15.6543 5.5661C15.6769 5.6207 15.71 5.67031 15.7518 5.71209C15.7936 5.75388 15.8432 5.78703 15.8978 5.80964C15.9524 5.83225 16.0109 5.84389 16.07 5.84389H18.086C18.1451 5.84389 18.2036 5.83225 18.2582 5.80964C18.3128 5.78703 18.3624 5.75388 18.4042 5.71209C18.446 5.67031 18.4791 5.6207 18.5018 5.5661C18.5244 5.51151 18.536 5.45299 18.536 5.39389C18.536 5.3348 18.5244 5.27628 18.5018 5.22169C18.4791 5.16709 18.446 5.11748 18.4042 5.0757C18.3624 5.03391 18.3128 5.00076 18.2582 4.97815C18.2036 4.95553 18.1451 4.94389 18.086 4.94389ZM14.8592 6.86329C14.7572 6.80138 14.6348 6.7825 14.5188 6.8108C14.4029 6.83909 14.3029 6.91225 14.2409 7.01419L13.8959 7.58239L13.8179 7.51039C13.73 7.43102 13.6143 7.38953 13.4959 7.39492C13.3776 7.40032 13.2661 7.45215 13.1858 7.53919C13.1054 7.62623 13.0626 7.74144 13.0667 7.85983C13.0707 7.97823 13.1213 8.09025 13.2074 8.17159L13.6895 8.6168C13.7385 8.66197 13.797 8.69571 13.8607 8.71558C13.9243 8.73545 13.9916 8.74095 14.0576 8.73169C14.1236 8.72239 14.1867 8.69854 14.2424 8.66186C14.2981 8.62518 14.3449 8.57659 14.3795 8.51959L15.0104 7.48129C15.0723 7.37928 15.0911 7.25688 15.0627 7.14099C15.0344 7.0251 14.9612 6.92522 14.8592 6.86329ZM18.086 7.31719H16.07C15.9507 7.31719 15.8362 7.36461 15.7518 7.449C15.6674 7.53339 15.62 7.64785 15.62 7.76719C15.62 7.88654 15.6674 8.001 15.7518 8.08539C15.8362 8.16978 15.9507 8.21719 16.07 8.21719H18.086C18.2054 8.21719 18.3198 8.16978 18.4042 8.08539C18.4886 8.001 18.536 7.88654 18.536 7.76719C18.536 7.64785 18.4886 7.53339 18.4042 7.449C18.3198 7.36461 18.2054 7.31719 18.086 7.31719ZM14.8595 9.08899C14.809 9.05825 14.7529 9.03777 14.6945 9.02872C14.636 9.01966 14.5764 9.02222 14.5189 9.03623C14.4615 9.05024 14.4074 9.07545 14.3596 9.11039C14.3119 9.14534 14.2716 9.18934 14.2409 9.23989L13.8959 9.80809L13.8179 9.73609C13.7295 9.65946 13.6147 9.62025 13.4979 9.62676C13.3811 9.63327 13.2714 9.68499 13.1921 9.77096C13.1127 9.85694 13.0699 9.97043 13.0728 10.0874C13.0757 10.2043 13.1239 10.3156 13.2074 10.3976L13.6895 10.8425C13.7386 10.8875 13.7971 10.9211 13.8607 10.9408C13.9243 10.9606 13.9916 10.966 14.0575 10.9567C14.1235 10.9473 14.1866 10.9235 14.2422 10.8869C14.2979 10.8503 14.3448 10.8019 14.3795 10.745L15.0104 9.70699C15.0723 9.60502 15.0912 9.48264 15.0629 9.36676C15.0346 9.25087 14.9614 9.15097 14.8595 9.08899ZM17.9441 9.54259H16.0703C15.951 9.54259 15.8365 9.59 15.7521 9.6744C15.6677 9.75879 15.6203 9.87325 15.6203 9.99259C15.6203 10.1119 15.6677 10.2264 15.7521 10.3108C15.8365 10.3952 15.951 10.4426 16.0703 10.4426H17.9441C18.0635 10.4426 18.1779 10.3952 18.2623 10.3108C18.3467 10.2264 18.3941 10.1119 18.3941 9.99259C18.3941 9.87325 18.3467 9.75879 18.2623 9.6744C18.1779 9.59 18.0635 9.54259 17.9441 9.54259Z" fill="#E9D954"/>
</svg>
