<svg width="50" height="50" viewBox="0 0 50 50" fill="none" xmlns="http://www.w3.org/2000/svg">
<g clip-path="url(#clip0_774_8418)">
<path d="M34.7511 18.5682L25.7668 13.4838C25.5326 13.3523 25.2686 13.2832 25 13.2832C24.7314 13.2832 24.4674 13.3523 24.2332 13.4838L15.2497 18.568C15.0078 18.7053 14.8066 18.9042 14.6667 19.1446C14.5267 19.385 14.453 19.6582 14.4531 19.9363V30.0647C14.453 30.3427 14.5266 30.6158 14.6664 30.8562C14.8062 31.0965 15.0072 31.2955 15.2489 31.4329L24.2332 36.5173C24.4687 36.6447 24.7323 36.7114 25 36.7114C25.2678 36.7114 25.5313 36.6447 25.7668 36.5173L34.7504 31.433C34.9923 31.2958 35.1934 31.0968 35.3334 30.8564C35.4733 30.616 35.547 30.3429 35.5469 30.0647V19.9363C35.547 19.6583 35.4734 19.3852 35.3336 19.1449C35.1938 18.9046 34.9928 18.7056 34.7511 18.5682ZM33.9844 30.0647L25.0031 35.1573L16.0156 30.0647L16.0187 19.9281L24.9969 14.8437L33.9844 19.9363V30.0647Z" fill="white"/>
<path d="M28.5156 27.0197L28.5168 29.1664H21.4844V27.0197C21.492 26.6296 21.6376 26.2547 21.8952 25.9617C22.1529 25.6686 22.5061 25.4763 22.8921 25.4189C22.3748 25.1252 21.9237 24.728 21.567 24.252C21.0713 24.5252 20.6575 24.9257 20.3683 25.4123C20.0791 25.8988 19.925 26.4537 19.9219 27.0197V29.1664C19.9223 29.5807 20.0871 29.9779 20.38 30.2708C20.6729 30.5637 21.0701 30.7285 21.4844 30.7289H28.5156C28.9299 30.7285 29.3271 30.5637 29.62 30.2708C29.9129 29.9779 30.0777 29.5807 30.0781 29.1664V27.0197C30.075 26.4537 29.9209 25.8988 29.6317 25.4123C29.3425 24.9257 28.9287 24.5252 28.433 24.252C28.0763 24.728 27.6252 25.1252 27.1079 25.4189C27.4939 25.4763 27.8471 25.6686 28.1048 25.9617C28.3624 26.2547 28.508 26.6296 28.5156 27.0197Z" fill="white"/>
<path d="M22.2656 21.6787C22.2656 22.2195 22.426 22.7482 22.7265 23.1978C23.0269 23.6475 23.454 23.998 23.9536 24.2049C24.4532 24.4119 25.003 24.4661 25.5334 24.3605C26.0639 24.255 26.5511 23.9946 26.9335 23.6122C27.3159 23.2298 27.5763 22.7426 27.6818 22.2122C27.7873 21.6817 27.7332 21.132 27.5262 20.6323C27.3193 20.1327 26.9688 19.7056 26.5191 19.4052C26.0695 19.1047 25.5408 18.9443 25 18.9443C24.2751 18.9452 23.5801 19.2335 23.0674 19.7461C22.5548 20.2588 22.2665 20.9538 22.2656 21.6787ZM25 20.5068C25.2318 20.5068 25.4583 20.5756 25.6511 20.7043C25.8438 20.8331 25.994 21.0161 26.0827 21.2303C26.1714 21.4444 26.1946 21.68 26.1494 21.9073C26.1041 22.1347 25.9925 22.3435 25.8286 22.5074C25.6648 22.6712 25.4559 22.7829 25.2286 22.8281C25.0013 22.8733 24.7657 22.8501 24.5515 22.7614C24.3374 22.6727 24.1544 22.5225 24.0256 22.3298C23.8969 22.1371 23.8281 21.9105 23.8281 21.6787C23.8285 21.368 23.952 21.0701 24.1717 20.8504C24.3914 20.6307 24.6893 20.5072 25 20.5068Z" fill="white"/>
<path d="M21.492 6.73572L24.617 8.49353C24.7343 8.55814 24.8661 8.59201 25 8.59201C25.1339 8.59201 25.2657 8.55814 25.383 8.49353L28.508 6.73572C28.6288 6.66776 28.7294 6.56887 28.7994 6.44921C28.8694 6.32955 28.9062 6.19342 28.9062 6.05479V2.53917C28.9063 2.40054 28.8694 2.26441 28.7994 2.14475C28.7294 2.02508 28.6288 1.92619 28.508 1.85823L25.383 0.100422C25.2661 0.0345867 25.1342 0 25 0C24.8658 0 24.7339 0.0345867 24.617 0.100422L21.492 1.85823C21.3712 1.92619 21.2706 2.02508 21.2006 2.14475C21.1306 2.26441 21.0937 2.40054 21.0938 2.53917V6.05479C21.0938 6.19342 21.1306 6.32955 21.2006 6.44921C21.2706 6.56887 21.3712 6.66776 21.492 6.73572ZM22.6562 2.99617L25 1.67781L27.3438 2.99617V5.5978L25 6.91616L22.6562 5.5978V2.99617Z" fill="white"/>
<path d="M28.508 43.2664L25.383 41.5086C25.2661 41.4428 25.1342 41.4082 25 41.4082C24.8658 41.4082 24.7339 41.4428 24.617 41.5086L21.492 43.2664C21.3712 43.3344 21.2706 43.4333 21.2006 43.5529C21.1306 43.6726 21.0938 43.8087 21.0938 43.9474V47.463C21.0938 47.6016 21.1306 47.7377 21.2006 47.8574C21.2706 47.9771 21.3712 48.0759 21.492 48.1439L24.617 49.9017C24.7343 49.9663 24.8661 50.0002 25 50.0002C25.1339 50.0002 25.2657 49.9663 25.383 49.9017L28.508 48.1439C28.6288 48.0759 28.7294 47.9771 28.7994 47.8574C28.8694 47.7377 28.9062 47.6016 28.9062 47.463V43.9474C28.9062 43.8087 28.8694 43.6726 28.7994 43.5529C28.7294 43.4333 28.6288 43.3344 28.508 43.2664ZM27.3438 47.006L25 48.3243L22.6562 47.006V44.4044L25 43.086L27.3438 44.4044V47.006Z" fill="white"/>
<path d="M12.4433 17.8559L10.0995 16.684C10.0077 16.6382 9.90783 16.6108 9.80548 16.6035C9.70313 16.5963 9.60035 16.6092 9.50301 16.6417C9.30642 16.7072 9.14391 16.8481 9.05124 17.0335C8.95857 17.2188 8.94332 17.4334 9.00885 17.63C9.07438 17.8266 9.21532 17.9891 9.40067 18.0818L11.7444 19.2536C11.9302 19.3435 12.1438 19.3573 12.3396 19.292C12.5354 19.2268 12.698 19.0876 12.7927 18.9042C12.8386 18.8124 12.866 18.7125 12.8733 18.6102C12.8805 18.5078 12.8676 18.405 12.8351 18.3077C12.8027 18.2103 12.7514 18.1203 12.6841 18.0428C12.6169 17.9653 12.5351 17.9018 12.4433 17.8559Z" fill="white"/>
<path d="M39.8695 16.6839L37.5257 17.8558C37.4339 17.9017 37.3521 17.9652 37.2848 18.0427C37.2176 18.1202 37.1663 18.2102 37.1338 18.3076C37.1014 18.4049 37.0884 18.5077 37.0957 18.61C37.103 18.7124 37.1304 18.8123 37.1763 18.9041C37.2722 19.0863 37.4348 19.2245 37.6302 19.2896C37.8255 19.3547 38.0385 19.3418 38.2246 19.2535L40.5683 18.0816C40.7536 17.9889 40.8944 17.8264 40.9599 17.6299C41.0254 17.4333 41.0102 17.2188 40.9175 17.0335C40.8248 16.8482 40.6624 16.7072 40.4659 16.6417C40.2693 16.5762 40.0548 16.5913 39.8695 16.6839Z" fill="white"/>
<path d="M11.7445 31.2349L9.40071 32.4068C9.30892 32.4527 9.22707 32.5162 9.15984 32.5937C9.0926 32.6712 9.04129 32.7612 9.00884 32.8586C8.97639 32.9559 8.96344 33.0587 8.97072 33.1611C8.978 33.2634 9.00537 33.3633 9.05127 33.4551C9.14753 33.637 9.31017 33.7748 9.5054 33.8399C9.70062 33.9049 9.91342 33.8923 10.0996 33.8045L12.4433 32.6327C12.5351 32.5868 12.617 32.5233 12.6843 32.4458C12.7515 32.3683 12.8028 32.2782 12.8353 32.1809C12.8678 32.0835 12.8808 31.9807 12.8735 31.8784C12.8662 31.776 12.8389 31.6761 12.793 31.5843C12.7471 31.4925 12.6835 31.4106 12.606 31.3434C12.5285 31.2761 12.4384 31.2248 12.3411 31.1924C12.2437 31.16 12.1409 31.147 12.0385 31.1543C11.9362 31.1616 11.8362 31.189 11.7445 31.2349Z" fill="white"/>
<path d="M40.5683 32.4067L38.2245 31.2348C38.0392 31.1422 37.8246 31.1269 37.628 31.1924C37.4314 31.258 37.2689 31.3989 37.1762 31.5843C37.0836 31.7696 37.0683 31.9842 37.1338 32.1808C37.1994 32.3774 37.3403 32.5399 37.5257 32.6325L39.8694 33.8044C40.0554 33.8934 40.2686 33.9067 40.4642 33.8415C40.6597 33.7763 40.8223 33.6377 40.9177 33.455C40.9636 33.3632 40.991 33.2633 40.9983 33.1609C41.0055 33.0586 40.9926 32.9558 40.9601 32.8585C40.9277 32.7611 40.8764 32.6711 40.8091 32.5936C40.7419 32.5161 40.6601 32.4526 40.5683 32.4067Z" fill="white"/>
<path d="M24.2188 10.1562V11.7188C24.2188 11.926 24.3011 12.1247 24.4476 12.2712C24.5941 12.4177 24.7928 12.5 25 12.5C25.2072 12.5 25.4059 12.4177 25.5524 12.2712C25.6989 12.1247 25.7812 11.926 25.7812 11.7188V10.1562C25.7812 9.94905 25.6989 9.75034 25.5524 9.60382C25.4059 9.45731 25.2072 9.375 25 9.375C24.7928 9.375 24.5941 9.45731 24.4476 9.60382C24.3011 9.75034 24.2188 9.94905 24.2188 10.1562Z" fill="white"/>
<path d="M25.7812 39.8438V38.2812C25.7812 38.074 25.6989 37.8753 25.5524 37.7288C25.4059 37.5823 25.2072 37.5 25 37.5C24.7928 37.5 24.5941 37.5823 24.4476 37.7288C24.3011 37.8753 24.2188 38.074 24.2188 38.2812V39.8438C24.2188 40.051 24.3011 40.2497 24.4476 40.3962C24.5941 40.5427 24.7928 40.625 25 40.625C25.2072 40.625 25.4059 40.5427 25.5524 40.3962C25.6989 40.2497 25.7812 40.051 25.7812 39.8438Z" fill="white"/>
<path d="M7.41425 11.6248L4.28925 9.86702C4.17233 9.80119 4.04042 9.7666 3.90625 9.7666C3.77208 9.7666 3.64017 9.80119 3.52325 9.86702L0.398254 11.6248C0.277429 11.6928 0.176863 11.7917 0.106876 11.9113C0.0368885 12.031 1.42735e-06 12.1671 0 12.3058L0 15.8214C1.42735e-06 15.96 0.0368885 16.0961 0.106876 16.2158C0.176863 16.3355 0.277429 16.4343 0.398254 16.5023L3.52325 18.2601C3.64057 18.3247 3.77232 18.3586 3.90625 18.3586C4.04018 18.3586 4.17193 18.3247 4.28925 18.2601L7.41425 16.5023C7.53507 16.4343 7.63564 16.3355 7.70562 16.2158C7.77561 16.0961 7.8125 15.96 7.8125 15.8214V12.3058C7.8125 12.1671 7.77561 12.031 7.70562 11.9113C7.63564 11.7917 7.53507 11.6928 7.41425 11.6248ZM6.25 15.3644L3.90625 16.6827L1.5625 15.3644V12.7628L3.90625 11.4444L6.25 12.7628V15.3644Z" fill="white"/>
<path d="M49.6017 11.6248L46.4767 9.86702C46.3598 9.80119 46.2279 9.7666 46.0938 9.7666C45.9596 9.7666 45.8277 9.80119 45.7108 9.86702L42.5858 11.6248C42.4649 11.6928 42.3644 11.7917 42.2944 11.9113C42.2244 12.031 42.1875 12.1671 42.1875 12.3058V15.8214C42.1875 15.96 42.2244 16.0961 42.2944 16.2158C42.3644 16.3355 42.4649 16.4343 42.5858 16.5023L45.7108 18.2601C45.8281 18.3247 45.9598 18.3586 46.0938 18.3586C46.2277 18.3586 46.3594 18.3247 46.4767 18.2601L49.6017 16.5023C49.7226 16.4343 49.8231 16.3355 49.8931 16.2158C49.9631 16.0961 50 15.96 50 15.8214V12.3058C50 12.1671 49.9631 12.031 49.8931 11.9113C49.8231 11.7917 49.7226 11.6928 49.6017 11.6248ZM48.4375 15.3644L46.0938 16.6827L43.75 15.3644V12.7628L46.0938 11.4444L48.4375 12.7628V15.3644Z" fill="white"/>
<path d="M7.41425 33.9881L4.28925 32.2303C4.17233 32.1645 4.04042 32.1299 3.90625 32.1299C3.77208 32.1299 3.64017 32.1645 3.52325 32.2303L0.398254 33.9881C0.277429 34.0561 0.176863 34.155 0.106876 34.2746C0.0368885 34.3943 1.42735e-06 34.5304 0 34.669L0 38.1847C1.42735e-06 38.3233 0.0368885 38.4594 0.106876 38.5791C0.176863 38.6987 0.277429 38.7976 0.398254 38.8656L3.52325 40.6234C3.64057 40.688 3.77232 40.7219 3.90625 40.7219C4.04018 40.7219 4.17193 40.688 4.28925 40.6234L7.41425 38.8656C7.53507 38.7976 7.63564 38.6987 7.70562 38.5791C7.77561 38.4594 7.8125 38.3233 7.8125 38.1847V34.669C7.8125 34.5304 7.77561 34.3943 7.70562 34.2746C7.63564 34.155 7.53507 34.0561 7.41425 33.9881ZM6.25 37.7277L3.90625 39.046L1.5625 37.7277V35.126L3.90625 33.8077L6.25 35.126V37.7277Z" fill="white"/>
<path d="M49.6017 33.9881L46.4767 32.2303C46.3598 32.1645 46.2279 32.1299 46.0938 32.1299C45.9596 32.1299 45.8277 32.1645 45.7108 32.2303L42.5858 33.9881C42.4649 34.0561 42.3644 34.155 42.2944 34.2746C42.2244 34.3943 42.1875 34.5304 42.1875 34.669V38.1847C42.1875 38.3233 42.2244 38.4594 42.2944 38.5791C42.3644 38.6987 42.4649 38.7976 42.5858 38.8656L45.7108 40.6234C45.8281 40.688 45.9598 40.7219 46.0938 40.7219C46.2277 40.7219 46.3594 40.688 46.4767 40.6234L49.6017 38.8656C49.7226 38.7976 49.8231 38.6987 49.8931 38.5791C49.9631 38.4594 50 38.3233 50 38.1847V34.669C50 34.5304 49.9631 34.3943 49.8931 34.2746C49.8231 34.155 49.7226 34.0561 49.6017 33.9881ZM48.4375 37.7277L46.0938 39.046L43.75 37.7277V35.126L46.0938 33.8077L48.4375 35.126V37.7277Z" fill="white"/>
</g>
<defs>
<clipPath id="clip0_774_8418">
<rect width="50" height="50" fill="white"/>
</clipPath>
</defs>
</svg>
