<svg width="30" height="30" viewBox="0 0 30 30" fill="none" xmlns="http://www.w3.org/2000/svg">
<path d="M28.1836 22.9102H11.0801C10.5163 22.9102 10.0319 22.5082 9.92807 21.9543L9.77766 21.1523H27.0117C27.1489 21.1524 27.2818 21.1042 27.3871 21.0163C27.4925 20.9284 27.5636 20.8062 27.5882 20.6712L29.9319 7.78061C29.9973 7.42084 29.7204 7.08985 29.3554 7.08985H26.8185C27.77 3.64559 25.181 0.0585979 21.4453 0.0585979C19.9069 0.0585979 18.4649 0.681918 17.4166 1.78424L14.5225 0.135414C14.4341 0.0850686 14.3341 0.0585938 14.2324 0.0585938C14.1307 0.0585938 14.0308 0.0850686 13.9424 0.135414L8.78022 3.07623C8.69036 3.12743 8.61565 3.20149 8.56368 3.2909C8.51171 3.38031 8.48433 3.48188 8.48432 3.5853V7.08985H7.14111L7.03986 6.54991C6.78012 5.16516 5.56898 4.16016 4.16016 4.16016H1.81641C0.845215 4.16016 0.0585938 4.94678 0.0585938 5.91797C0.0585938 6.88723 0.847148 7.67579 1.81641 7.67579H3.1875C3.32414 7.67573 3.45651 7.72345 3.56169 7.81067C3.66687 7.8979 3.73825 8.01915 3.76348 8.15344L6.56197 23.0801C6.92531 25.0187 8.62096 26.4258 10.5937 26.4258H10.9208C10.0229 27.9738 11.1408 29.9414 12.9492 29.9414C14.754 29.9414 15.8778 27.9779 14.9776 26.4258H23.8114C22.9135 27.9738 24.0314 29.9414 25.8398 29.9414C27.6446 29.9414 28.7685 27.9779 27.8682 26.4258H28.1835C29.1547 26.4258 29.9413 25.6392 29.9413 24.668C29.9414 23.6987 29.1528 22.9102 28.1836 22.9102ZM21.4453 1.23047C24.5075 1.23047 26.5918 4.28245 25.5899 7.08985H19.9805V3.58536C19.9805 3.48194 19.9531 3.38036 19.9011 3.29095C19.8492 3.20154 19.7744 3.12748 19.6846 3.07629L18.4745 2.38688C19.2797 1.64549 20.3305 1.23047 21.4453 1.23047ZM9.65619 3.9259L14.2324 1.31889L18.8086 3.9259V7.08985H17.6367V4.94766C17.6367 4.84423 17.6093 4.74265 17.5574 4.65323C17.5054 4.56381 17.4307 4.48974 17.3408 4.43854L14.5225 2.83307C14.4341 2.78275 14.3341 2.75629 14.2324 2.75629C14.1307 2.75629 14.0308 2.78275 13.9424 2.83307L11.124 4.43854C11.0341 4.48974 10.9594 4.56381 10.9074 4.65323C10.8554 4.74265 10.8281 4.84424 10.8281 4.94766V7.08985H9.65619V3.9259ZM11.9999 7.08985V5.28827L14.2324 4.01655L16.4648 5.28827V7.08985H11.9999ZM7.36107 8.26172H28.6534L26.5228 19.9805H9.55793L7.36107 8.26172ZM14.1211 27.5977C14.1211 28.2438 13.5954 28.7695 12.9492 28.7695C12.303 28.7695 11.7773 28.2438 11.7773 27.5977C11.7773 26.9515 12.303 26.4258 12.9492 26.4258C13.5954 26.4258 14.1211 26.9515 14.1211 27.5977ZM27.0117 27.5977C27.0117 28.2438 26.486 28.7695 25.8398 28.7695C25.1937 28.7695 24.668 28.2438 24.668 27.5977C24.668 26.9515 25.1937 26.4258 25.8398 26.4258C26.486 26.4258 27.0117 26.9515 27.0117 27.5977ZM28.1836 25.2539H10.5937C9.18451 25.2539 7.97332 24.249 7.71387 22.8643L4.91531 7.93776C4.75992 7.1069 4.0333 6.50391 3.1875 6.50391H1.81641C1.49332 6.50391 1.23047 6.24106 1.23047 5.91797C1.23047 5.59448 1.49297 5.33204 1.81641 5.33204H4.16016C5.00555 5.33204 5.73223 5.93514 5.8882 6.76612C9.0583 23.676 8.49691 20.6805 8.77623 22.1702C8.98383 23.278 9.95273 24.082 11.08 24.082H28.1835C28.5066 24.082 28.7695 24.3449 28.7695 24.668C28.7695 24.9915 28.507 25.2539 28.1836 25.2539Z" fill="white"/>
<path d="M12.7305 16.4648C13.054 16.4648 13.3164 16.2025 13.3164 15.8789V12.3633C13.3164 12.0397 13.054 11.7773 12.7305 11.7773C12.4069 11.7773 12.1445 12.0397 12.1445 12.3633V15.8789C12.1445 16.2025 12.4069 16.4648 12.7305 16.4648ZM16.2461 16.4648C16.5696 16.4648 16.832 16.2025 16.832 15.8789V12.3633C16.832 12.0397 16.5696 11.7773 16.2461 11.7773C15.9225 11.7773 15.6602 12.0397 15.6602 12.3633V15.8789C15.6602 16.2025 15.9225 16.4648 16.2461 16.4648ZM19.7617 16.4648C20.0853 16.4648 20.3477 16.2025 20.3477 15.8789V12.3633C20.3477 12.0397 20.0853 11.7773 19.7617 11.7773C19.4382 11.7773 19.1758 12.0397 19.1758 12.3633V15.8789C19.1758 16.2025 19.4381 16.4648 19.7617 16.4648ZM23.2773 16.4648C23.6009 16.4648 23.8633 16.2025 23.8633 15.8789V12.3633C23.8633 12.0397 23.6009 11.7773 23.2773 11.7773C22.9538 11.7773 22.6914 12.0397 22.6914 12.3633V15.8789C22.6914 16.2025 22.9537 16.4648 23.2773 16.4648Z" fill="#E9D954"/>
</svg>
