<svg width="45" height="45" viewBox="0 0 45 45" fill="none" xmlns="http://www.w3.org/2000/svg">
<circle cx="22.5" cy="22.5" r="22.5" fill="#FCE94E"/>
<g clip-path="url(#clip0_774_7803)">
<path fill-rule="evenodd" clip-rule="evenodd" d="M26.3039 20.1559H11.3008V26.6663C11.3008 27.4257 11.6029 28.1549 12.1393 28.6924C12.6768 29.2288 13.406 29.5309 14.1654 29.5309H24.2091C23.306 28.482 22.7591 27.1163 22.7591 25.6247C22.7591 23.1893 24.2154 21.0924 26.3039 20.1559ZM18.3331 24.8434H15.207C14.7758 24.8434 14.4258 25.1934 14.4258 25.6247C14.4258 26.0559 14.7758 26.4059 15.207 26.4059H18.3331C18.7643 26.4059 19.1143 26.0559 19.1143 25.6247C19.1143 25.1934 18.7643 24.8434 18.3331 24.8434ZM11.3008 18.5934H31.6133V17.2913C31.6133 16.532 31.3112 15.8028 30.7747 15.2653C30.2372 14.7288 29.5081 14.4268 28.7487 14.4268C25.1414 14.4268 17.7727 14.4268 14.1654 14.4268C13.406 14.4268 12.6768 14.7288 12.1393 15.2653C11.6029 15.8028 11.3008 16.532 11.3008 17.2913V18.5934Z" fill="#4B4C4B"/>
<g clip-path="url(#clip1_774_7803)">
<path d="M29.8246 28.7341C31.6082 28.7341 33.0593 27.283 33.0593 25.4994C33.0593 23.7157 31.6082 22.2646 29.8246 22.2646C28.041 22.2646 26.5898 23.7157 26.5898 25.4994C26.5898 27.283 28.0409 28.7341 29.8246 28.7341ZM29.5023 25.1771V24.461C29.5023 24.283 29.6466 24.1387 29.8246 24.1387C30.0026 24.1387 30.1469 24.283 30.1469 24.461V25.4994C30.1469 25.6773 30.0026 25.8216 29.8246 25.8216H28.2065C28.0286 25.8216 27.8843 25.6773 27.8843 25.4994C27.8843 25.3214 28.0286 25.1771 28.2065 25.1771H29.5023Z" fill="#4B4C4B"/>
<path d="M33.4839 21.8394C32.5062 20.8617 31.2063 20.3232 29.8236 20.3232C28.441 20.3232 27.141 20.8617 26.1633 21.8394C25.3593 22.6434 24.8526 23.6656 24.6979 24.7723L24.5501 24.6245C24.4243 24.4987 24.2202 24.4987 24.0944 24.6245C23.9685 24.7504 23.9685 24.9544 24.0944 25.0803L24.7416 25.7275C24.8045 25.7904 24.887 25.8219 24.9695 25.8219C25.0519 25.8219 25.1344 25.7904 25.1973 25.7275L25.8446 25.0803C25.9704 24.9544 25.9704 24.7504 25.8446 24.6245C25.7187 24.4987 25.5147 24.4987 25.3888 24.6245L25.374 24.6393C25.7771 22.5505 27.6188 20.9678 29.8236 20.9678C32.3225 20.9678 34.3555 23.0008 34.3555 25.4996C34.3555 27.9985 32.3225 30.0315 29.8236 30.0315C27.7912 30.0315 25.9946 28.665 25.4546 26.7083C25.4073 26.5367 25.2298 26.436 25.0582 26.4834C24.8867 26.5307 24.786 26.7082 24.8333 26.8798C25.1288 27.9505 25.7783 28.916 26.662 29.5986C27.5745 30.3035 28.6678 30.676 29.8236 30.676C31.2062 30.676 32.5061 30.1376 33.4839 29.1599C34.4616 28.1822 35 26.8823 35 25.4996C35 24.117 34.4616 22.8171 33.4839 21.8394Z" fill="#4B4C4B"/>
</g>
</g>
<defs>
<clipPath id="clip0_774_7803">
<rect width="25" height="25" fill="white" transform="translate(10 10)"/>
</clipPath>
<clipPath id="clip1_774_7803">
<rect width="11" height="11" fill="white" transform="translate(24 20)"/>
</clipPath>
</defs>
</svg>
