<?xml version="1.0" encoding="UTF-8"?>
<svg xmlns="http://www.w3.org/2000/svg" width="25" height="25" viewBox="0 0 25 25" fill="none">
  <path d="M12.5 0C10.0277 0 7.61099 0.733112 5.55538 2.10663C3.49976 3.48015 1.89761 5.43238 0.951511 7.71646C0.00541606 10.0005 -0.242126 12.5139 0.24019 14.9386C0.722505 17.3634 1.91301 19.5907 3.66117 21.3388C5.40933 23.087 7.63661 24.2775 10.0614 24.7598C12.4861 25.2421 14.9995 24.9946 17.2835 24.0485C19.5676 23.1024 21.5199 21.5002 22.8934 19.4446C24.2669 17.389 25 14.9723 25 12.5C24.9962 9.18597 23.678 6.00877 21.3346 3.6654C18.9912 1.32202 15.814 0.0038303 12.5 0ZM18.4533 10.3112L11.4014 17.042C11.2221 17.2125 10.984 17.3077 10.7366 17.3077C10.4891 17.3077 10.251 17.2125 10.0717 17.042L6.54673 13.6766C6.36257 13.5002 6.25596 13.2579 6.25031 13.0029C6.24467 12.748 6.34045 12.5012 6.51662 12.3168C6.6928 12.1324 6.93495 12.0255 7.1899 12.0195C7.44485 12.0136 7.69175 12.109 7.87636 12.285L10.7366 15.0165L17.1236 8.91958C17.3083 8.74364 17.5552 8.64817 17.8101 8.65414C18.0651 8.66011 18.3072 8.76703 18.4834 8.95141C18.6596 9.1358 18.7553 9.38257 18.7497 9.63753C18.744 9.89248 18.6374 10.1348 18.4533 10.3112Z" fill="#FFEA00"></path>
</svg>
