<svg width="45" height="45" viewBox="0 0 45 45" fill="none" xmlns="http://www.w3.org/2000/svg">
<circle cx="22.5" cy="22.5" r="22.5" fill="#FCE94E"/>
<g clip-path="url(#clip0_774_9411)">
<path d="M22.5 10C15.6078 10 10 15.6078 10 22.5C10 29.3922 15.6078 35 22.5 35C29.3922 35 35 29.3922 35 22.5C35 15.6078 29.3922 10 22.5 10ZM29.4862 19.2105L21.4975 27.1366C21.0276 27.6065 20.2757 27.6378 19.7744 27.1679L15.5451 23.3145C15.0439 22.8446 15.0125 22.0614 15.4511 21.5602C15.9211 21.0589 16.7043 21.0276 17.2055 21.4975L20.5576 24.5677L27.7005 17.4248C28.2018 16.9236 28.985 16.9236 29.4862 17.4248C29.9875 17.9261 29.9875 18.7093 29.4862 19.2105Z" fill="#4B4C4B"/>
</g>
<defs>
<clipPath id="clip0_774_9411">
<rect width="25" height="25" fill="white" transform="translate(10 10)"/>
</clipPath>
</defs>
</svg>
