<svg width="50" height="50" viewBox="0 0 50 50" fill="none" xmlns="http://www.w3.org/2000/svg">
<path d="M6.25001 24.9996C6.2458 20.1592 8.11364 15.5048 11.4627 12.0101C14.8118 8.51539 19.3826 6.45127 24.2188 6.24959V10.9371C20.6262 11.137 17.2469 12.7063 14.7764 15.3222C12.3058 17.9381 10.9319 21.4015 10.9375 24.9996H12.5C12.5037 21.8222 13.7173 18.7654 15.8941 16.4507C18.0709 14.1361 21.0475 12.7372 24.2188 12.5387V13.2808C24.2185 13.4136 24.2521 13.5443 24.3163 13.6604C24.3806 13.7766 24.4734 13.8745 24.5859 13.9449C24.7103 14.022 24.8537 14.0626 25 14.0621C25.1223 14.0614 25.2427 14.0319 25.3516 13.9762L34.7266 9.28865C34.8545 9.22309 34.9619 9.12348 35.0369 9.0008C35.1119 8.87812 35.1516 8.73713 35.1516 8.59334C35.1516 8.44955 35.1119 8.30856 35.0369 8.18587C34.9619 8.06319 34.8545 7.96359 34.7266 7.89803L25.3516 3.21053C25.2326 3.1506 25.1004 3.12206 24.9673 3.12764C24.8342 3.13321 24.7048 3.17271 24.5913 3.24237C24.4778 3.31204 24.384 3.40956 24.3188 3.52568C24.2536 3.6418 24.2192 3.77266 24.2188 3.90584V4.68709C18.9681 4.88919 14 7.11814 10.3581 10.9058C6.71611 14.6934 4.68362 19.745 4.68751 24.9996H6.25001Z" fill="white"/>
<path d="M43.7493 25C43.7535 29.8404 41.8856 34.4948 38.5365 37.9895C35.1875 41.4842 30.6167 43.5483 25.7805 43.75V39.0625C29.3731 38.8626 32.7523 37.2932 35.2229 34.6774C37.6934 32.0615 39.0673 28.5981 39.0617 25H37.4992C37.5055 28.1842 36.2963 31.2507 34.1185 33.5737C31.9407 35.8967 28.9585 37.301 25.7805 37.5V36.7188C25.7801 36.5856 25.7457 36.4547 25.6805 36.3386C25.6152 36.2225 25.5214 36.125 25.4079 36.0553C25.2944 35.9856 25.165 35.9461 25.032 35.9405C24.8989 35.935 24.7666 35.9635 24.6477 36.0234L15.2727 40.7109C15.1447 40.7765 15.0373 40.8761 14.9623 40.9988C14.8873 41.1215 14.8477 41.2625 14.8477 41.4062C14.8477 41.55 14.8873 41.691 14.9623 41.8137C15.0373 41.9364 15.1447 42.036 15.2727 42.1016L24.6477 46.7891C24.7565 46.8448 24.877 46.8743 24.9992 46.875C25.1455 46.8755 25.289 46.8349 25.4133 46.7578C25.5259 46.6874 25.6187 46.5895 25.6829 46.4734C25.7472 46.3572 25.7808 46.2265 25.7805 46.0938V45.3125C31.0312 45.1104 35.9992 42.8815 39.6412 39.0938C43.2831 35.3062 45.3156 30.2545 45.3118 25H43.7493Z" fill="white"/>
<path d="M17.1875 25C17.1875 26.5452 17.6457 28.0556 18.5041 29.3404C19.3626 30.6252 20.5827 31.6265 22.0103 32.2178C23.4378 32.8091 25.0087 32.9638 26.5241 32.6624C28.0396 32.3609 29.4317 31.6169 30.5243 30.5243C31.6169 29.4317 32.3609 28.0396 32.6624 26.5241C32.9638 25.0087 32.8091 23.4378 32.2178 22.0103C31.6265 20.5827 30.6252 19.3626 29.3404 18.5041C28.0556 17.6457 26.5452 17.1875 25 17.1875C22.928 17.1875 20.9409 18.0106 19.4757 19.4757C18.0106 20.9409 17.1875 22.928 17.1875 25ZM27.3438 23.4375H25.7812C25.7812 23.283 25.7354 23.1319 25.6496 23.0035C25.5637 22.875 25.4417 22.7749 25.299 22.7157C25.1562 22.6566 24.9991 22.6411 24.8476 22.6713C24.696 22.7014 24.5568 22.7758 24.4476 22.8851C24.3383 22.9943 24.2639 23.1335 24.2338 23.2851C24.2036 23.4366 24.2191 23.5937 24.2782 23.7365C24.3374 23.8792 24.4375 24.0012 24.566 24.0871C24.6944 24.1729 24.8455 24.2188 25 24.2188C25.5496 24.223 26.0803 24.4203 26.4992 24.7762C26.9181 25.132 27.1986 25.6238 27.2917 26.1655C27.3848 26.7073 27.2845 27.2645 27.0084 27.7397C26.7323 28.215 26.2979 28.5781 25.7812 28.7656V29.6875H24.2188V28.7656C23.7629 28.6044 23.368 28.3062 23.0882 27.9118C22.8085 27.5173 22.6576 27.0461 22.6562 26.5625H24.2188C24.2188 26.717 24.2646 26.8681 24.3504 26.9965C24.4363 27.125 24.5583 27.2251 24.701 27.2843C24.8438 27.3434 25.0009 27.3589 25.1524 27.3287C25.304 27.2986 25.4432 27.2242 25.5524 27.1149C25.6617 27.0057 25.7361 26.8665 25.7662 26.7149C25.7964 26.5634 25.7809 26.4063 25.7218 26.2635C25.6626 26.1208 25.5625 25.9988 25.434 25.9129C25.3056 25.8271 25.1545 25.7812 25 25.7812C24.4504 25.777 23.9197 25.5797 23.5008 25.2238C23.0819 24.868 22.8014 24.3762 22.7083 23.8345C22.6152 23.2927 22.7155 22.7355 22.9916 22.2603C23.2677 21.785 23.7021 21.4219 24.2188 21.2344V20.3125H25.7812V21.2344C26.2371 21.3956 26.632 21.6938 26.9118 22.0882C27.1915 22.4827 27.3424 22.9539 27.3438 23.4375Z" fill="white"/>
</svg>
