<svg width="50" height="50" viewBox="0 0 50 50" fill="none" xmlns="http://www.w3.org/2000/svg">
<path d="M7.2075 34.802C7.10495 34.6251 6.93719 34.4955 6.7402 34.4409C6.54321 34.3863 6.33267 34.4111 6.15372 34.5099C5.97477 34.6087 5.84166 34.7737 5.78294 34.9695C5.72422 35.1653 5.74455 35.3763 5.83959 35.5573C13.9724 50.5569 36.0305 50.5535 44.1605 35.557C44.2601 35.3756 44.2838 35.1621 44.2262 34.9633C44.1686 34.7645 44.0345 34.5967 43.8533 34.4967C43.6721 34.3967 43.4587 34.3726 43.2598 34.4299C43.0609 34.4871 42.8928 34.6209 42.7925 34.802C41.0382 37.9853 38.462 40.6398 35.3324 42.4884C32.2029 44.337 28.6347 45.3122 25 45.3122C21.3652 45.3122 17.797 44.337 14.6675 42.4884C11.538 40.6398 8.96179 37.9853 7.2075 34.802Z" fill="white"/>
<path d="M40.4041 11.7805C40.5401 11.9332 40.7304 12.0265 40.9344 12.0404C41.1383 12.0543 41.3396 11.9877 41.495 11.8549C41.6505 11.7222 41.7477 11.5338 41.7658 11.3301C41.7839 11.1265 41.7215 10.9239 41.5919 10.7658C33.2333 0.646664 16.7619 0.647406 8.40413 10.7661C8.27425 10.9242 8.21158 11.1269 8.2296 11.3307C8.24761 11.5346 8.34487 11.7232 8.50046 11.856C8.65606 11.9889 8.85758 12.0554 9.0617 12.0413C9.26582 12.0272 9.45625 11.9335 9.59206 11.7805C17.3527 2.38663 32.6444 2.38762 40.4041 11.7805Z" fill="white"/>
<path d="M14.7839 11.185C14.622 11.3101 14.5157 11.4938 14.4878 11.6965C14.4599 11.8992 14.5126 12.1048 14.6346 12.269C14.7566 12.4333 14.9381 12.5431 15.1403 12.575C15.3424 12.6068 15.5489 12.5581 15.7155 12.4392C18.4049 10.4563 21.6584 9.38652 24.9997 9.38654C28.3411 9.38656 31.5946 10.4564 34.2839 12.4393C34.4505 12.5578 34.6569 12.6063 34.8589 12.5743C35.0608 12.5424 35.2421 12.4325 35.364 12.2684C35.4859 12.1043 35.5386 11.8989 35.5108 11.6963C35.4831 11.4938 35.377 11.3102 35.2154 11.185C32.2564 9.00261 28.6764 7.82519 24.9997 7.8252C21.323 7.8252 17.7429 9.00263 14.7839 11.185Z" fill="white"/>
<path d="M24.9985 42.1872C27.5905 42.1925 30.1497 41.608 32.4825 40.478C34.8152 39.348 36.8603 37.7021 38.4628 35.6648C38.5866 35.5019 38.6416 35.297 38.616 35.094C38.5904 34.891 38.4862 34.7061 38.3258 34.5791C38.1654 34.452 37.9616 34.3929 37.7581 34.4145C37.5547 34.4361 37.3677 34.5366 37.2375 34.6944C31.245 42.5515 18.7511 42.5506 12.7594 34.6942C12.6291 34.5365 12.4422 34.4361 12.2388 34.4146C12.0354 34.3932 11.8316 34.4523 11.6713 34.5793C11.511 34.7064 11.4068 34.8912 11.3812 35.0941C11.3555 35.297 11.4105 35.5019 11.5342 35.6649C13.1367 37.7021 15.1818 39.348 17.5145 40.478C19.8472 41.608 22.4065 42.1925 24.9985 42.1872Z" fill="white"/>
<path d="M3.53705 27.0068C3.26231 27.5289 3.12622 28.1128 3.14183 28.7025C3.15744 29.2923 3.32421 29.8681 3.62617 30.3749C3.92814 30.8818 4.35518 31.3026 4.86639 31.597C5.3776 31.8915 5.95586 32.0497 6.54577 32.0567L15.2392 32.0567C15.2362 32.5724 15.3349 33.0835 15.5295 33.561C15.7242 34.0385 16.011 34.473 16.3737 34.8396C16.7363 35.2062 17.1677 35.4977 17.643 35.6975C18.1184 35.8973 18.6285 36.0015 19.1441 36.0041L30.8552 36.0042C31.3715 36.0038 31.8826 35.9012 32.359 35.7022C32.8355 35.5032 33.2677 35.2117 33.6308 34.8447C33.9939 34.4776 34.2806 34.0423 34.4745 33.5637C34.6683 33.0852 34.7654 32.573 34.7601 32.0567H43.4537C44.0436 32.0498 44.6218 31.8915 45.133 31.597C45.6442 31.3025 46.0713 30.8817 46.3732 30.3749C46.6752 29.8681 46.8419 29.2922 46.8575 28.7025C46.8731 28.1127 46.737 27.5288 46.4622 27.0068C45.3942 25.028 43.6257 23.5194 41.5032 22.7767C42.0965 22.3199 42.5771 21.733 42.9079 21.0613C43.2388 20.3896 43.4111 19.6509 43.4117 18.9021C43.1788 12.4103 33.8329 12.4101 33.6011 18.9022C33.6017 19.6511 33.7741 20.3899 34.1051 21.0617C34.4361 21.7335 34.9168 22.3204 35.5102 22.7773C33.5954 23.4517 31.9647 24.7536 30.883 26.4716C30.0724 25.9273 29.1901 25.4983 28.2613 25.1972C29.0028 24.6755 29.608 23.9832 30.0261 23.1788C30.4441 22.3743 30.6627 21.4811 30.6634 20.5745C30.3988 13.0811 19.6014 13.0781 19.336 20.5746C19.3367 21.4812 19.5553 22.3743 19.9733 23.1788C20.3914 23.9833 20.9966 24.6755 21.7381 25.1972C20.8089 25.4985 19.9262 25.9276 19.1153 26.4723C18.0317 24.7561 16.4019 23.4547 14.4884 22.7778C15.0821 22.3209 15.563 21.734 15.8941 21.062C16.2252 20.3901 16.3977 19.6512 16.3983 18.9021C16.1733 12.4166 6.81708 12.4067 6.58764 18.9021C6.58824 19.6509 6.7606 20.3896 7.09147 21.0613C7.42233 21.733 7.90288 22.3199 8.49614 22.7767C6.3737 23.5194 4.60513 25.028 3.53705 27.0068ZM35.1636 18.9021C35.172 18.0211 35.5279 17.179 36.1539 16.559C36.7799 15.9389 37.6253 15.5911 38.5064 15.5911C39.3875 15.5911 40.2329 15.939 40.8589 16.559C41.4849 17.1791 41.8408 18.0212 41.8492 18.9022C41.8408 19.7832 41.4849 20.6253 40.8589 21.2454C40.2329 21.8654 39.3874 22.2132 38.5063 22.2132C37.6253 22.2132 36.7798 21.8653 36.1538 21.2453C35.5278 20.6253 35.172 19.7832 35.1636 18.9021ZM38.5008 23.8072C39.8523 23.8061 41.1787 24.1721 42.3385 24.8659C43.4983 25.5598 44.4479 26.5555 45.086 27.7469C45.2357 28.0305 45.31 28.3479 45.3019 28.6685C45.2938 28.9891 45.2035 29.3023 45.0397 29.578C44.8758 29.8537 44.644 30.0827 44.3662 30.2432C44.0885 30.4036 43.7743 30.49 43.4536 30.4942H34.4128C33.8507 29.3377 33.0714 28.3002 32.1173 27.4382C32.7787 26.3346 33.7139 25.4205 34.8323 24.7844C35.9506 24.1483 37.2142 23.8117 38.5008 23.8072ZM20.8985 20.5745C21.0709 15.1546 28.9293 15.1558 29.1008 20.5746C28.9286 25.9949 21.0699 25.9937 20.8985 20.5745ZM32.9171 30.9733C33.1063 31.3315 33.2004 31.7322 33.1902 32.1372C33.1801 32.5421 33.066 32.9377 32.859 33.2859C32.652 33.634 32.359 33.9232 32.0081 34.1256C31.6572 34.328 31.2602 34.4368 30.8552 34.4416L19.1441 34.4417C18.7375 34.4408 18.3381 34.3345 17.9849 34.1331C17.6317 33.9317 17.3368 33.6421 17.1291 33.2926C16.9213 32.9431 16.8078 32.5457 16.7996 32.1391C16.7914 31.7326 16.8888 31.331 17.0823 30.9734C20.3565 24.7056 29.6437 24.7062 32.9171 30.9733ZM8.15016 18.9021C8.15848 18.021 8.51433 17.1788 9.14034 16.5587C9.76634 15.9386 10.6119 15.5907 11.493 15.5907C12.3742 15.5907 13.2197 15.9386 13.8457 16.5587C14.4717 17.1789 14.8275 18.0211 14.8358 18.9022C14.8275 19.7833 14.4716 20.6255 13.8456 21.2456C13.2196 21.8657 12.3741 22.2136 11.4929 22.2136C10.6118 22.2136 9.76628 21.8657 9.14029 21.2456C8.5143 20.6254 8.15846 19.7832 8.15016 18.9021ZM11.4857 23.807C12.7742 23.8106 14.04 24.1468 15.1605 24.7831C16.281 25.4193 17.2182 26.3341 17.8815 27.4388C16.9277 28.3007 16.1485 29.338 15.5865 30.4942H6.5457C6.22501 30.49 5.91077 30.4036 5.63306 30.2431C5.35536 30.0827 5.1235 29.8536 4.95968 29.5779C4.79587 29.3022 4.70559 28.989 4.6975 28.6684C4.6894 28.3478 4.76375 28.0305 4.91344 27.7468C5.55053 26.5574 6.49812 25.5629 7.65541 24.8692C8.8127 24.1754 10.1364 23.8084 11.4857 23.807Z" fill="white"/>
</svg>
