<svg width="30" height="30" viewBox="0 0 30 30" fill="none" xmlns="http://www.w3.org/2000/svg">
<path d="M7.50855 22.7772C7.04374 22.6618 6.5721 22.5759 6.09645 22.5199C6.82137 21.9869 7.30957 20.9999 7.30957 19.8721C7.30957 18.3136 6.37219 17.3454 4.86328 17.3454C3.35437 17.3454 2.41699 18.3136 2.41699 19.8721C2.41699 20.9975 2.90309 21.9827 3.62543 22.5166C3.1496 22.5717 2.67806 22.6591 2.21408 22.7782C0.786328 23.1453 0 23.9384 0 25.0113V28.3738C0 28.9794 0.492656 29.4721 1.09828 29.4721H8.62834C9.23391 29.4721 9.72662 28.9794 9.72662 28.3738V25.0113C9.72656 23.9412 8.91814 23.1268 7.50855 22.7772ZM4.86328 18.2829C5.42678 18.2829 6.37207 18.4894 6.37207 19.8721C6.37207 21.0268 5.68113 22.0024 4.86328 22.0024C4.04543 22.0024 3.35449 21.0268 3.35449 19.8721C3.35449 18.4894 4.29979 18.2829 4.86328 18.2829ZM8.78906 28.3738C8.78906 28.4609 8.71547 28.5346 8.62828 28.5346H7.72963V25.929C7.72963 25.8046 7.68024 25.6854 7.59234 25.5975C7.50443 25.5096 7.3852 25.4602 7.26088 25.4602C7.13656 25.4602 7.01733 25.5096 6.92942 25.5975C6.84151 25.6854 6.79213 25.8046 6.79213 25.929V28.5346H2.93443V25.929C2.93443 25.8046 2.88505 25.6854 2.79714 25.5975C2.70923 25.5096 2.59 25.4602 2.46568 25.4602C2.34136 25.4602 2.22213 25.5096 2.13423 25.5975C2.04632 25.6854 1.99693 25.8046 1.99693 25.929V28.5346H1.09828C1.01115 28.5346 0.9375 28.461 0.9375 28.3738V25.0113C0.9375 24.237 1.75869 23.8633 2.44752 23.6862C3.22927 23.4846 4.03336 23.3827 4.84066 23.3828C5.64902 23.3828 6.46512 23.4843 7.28285 23.6871C7.84535 23.8266 8.78906 24.1842 8.78906 25.0113V28.3738ZM29.6054 13.1003L26.7264 12.6394C26.4363 11.4544 25.9666 10.3208 25.3337 9.27779L27.0438 6.91594C27.1091 6.82564 27.1402 6.71501 27.1314 6.60389C27.1225 6.49277 27.0744 6.38843 26.9955 6.30961L24.2177 3.5318C24.1389 3.45298 24.0346 3.40483 23.9235 3.39599C23.8123 3.38715 23.7017 3.4182 23.6114 3.48357L21.2496 5.19363C20.2066 4.56074 19.0729 4.09107 17.8879 3.80092L17.4271 0.921973C17.4094 0.811906 17.3532 0.711723 17.2683 0.6394C17.1835 0.567077 17.0757 0.527349 16.9642 0.527344H13.0358C12.9244 0.527349 12.8165 0.567077 12.7317 0.6394C12.6469 0.711723 12.5906 0.811906 12.573 0.921973L12.1121 3.80086C10.9272 4.09103 9.7935 4.56072 8.75051 5.19363L6.38865 3.48357C6.29837 3.41818 6.18773 3.38712 6.0766 3.39595C5.96547 3.40479 5.86114 3.45296 5.78232 3.5318L3.00451 6.30967C2.92569 6.38849 2.87754 6.49283 2.86871 6.60395C2.85987 6.71507 2.89092 6.8257 2.95629 6.916L4.66635 9.27785C4.03341 10.3208 3.56374 11.4545 3.27363 12.6395L0.394688 13.1003C0.28461 13.1179 0.184413 13.1742 0.112078 13.259C0.0397437 13.3439 7.14711e-06 13.4517 0 13.5632L0 15.5273C0 15.6517 0.049386 15.7709 0.137294 15.8588C0.225201 15.9467 0.34443 15.9961 0.46875 15.9961H6.94336C7.06768 15.9961 7.18691 15.9467 7.27482 15.8588C7.36272 15.7709 7.41211 15.6517 7.41211 15.5273C7.41211 11.3433 10.816 7.93945 15 7.93945C19.184 7.93945 22.5879 11.3434 22.5879 15.5273C22.5879 15.6517 22.6373 15.7709 22.7252 15.8588C22.8131 15.9467 22.9323 15.9961 23.0566 15.9961H29.5312C29.6556 15.9961 29.7748 15.9467 29.8627 15.8588C29.9506 15.7709 30 15.6517 30 15.5273V13.5632C30 13.4517 29.9603 13.3439 29.8879 13.259C29.8156 13.1742 29.7154 13.1179 29.6054 13.1003ZM29.0625 15.0586H23.5127C23.2686 10.5748 19.5437 7.00195 15 7.00195C10.4563 7.00195 6.73143 10.5748 6.48732 15.0586H0.9375V13.9628L3.73324 13.5153C3.82637 13.5004 3.91283 13.4577 3.98133 13.3929C4.04983 13.3281 4.09718 13.2441 4.11721 13.152C4.39761 11.858 4.90841 10.6251 5.62523 9.51199C5.67623 9.43266 5.70212 9.33979 5.69952 9.24551C5.69692 9.15123 5.66594 9.05993 5.61064 8.98353L3.95004 6.68994L6.1626 4.47738L8.45625 6.13805C8.53263 6.19336 8.62392 6.22435 8.7182 6.22695C8.81247 6.22956 8.90533 6.20365 8.98465 6.15264C10.1027 5.43375 11.3274 4.92639 12.6247 4.64461C12.7168 4.6246 12.8008 4.57725 12.8656 4.50875C12.9305 4.44024 12.9731 4.35377 12.988 4.26064L13.4355 1.4649H16.5646L17.0121 4.2607C17.027 4.35383 17.0697 4.44029 17.1345 4.50879C17.1993 4.57729 17.2833 4.62465 17.3754 4.64467C18.6694 4.92506 19.9023 5.43586 21.0154 6.1527C21.0947 6.20368 21.1876 6.22956 21.2819 6.22696C21.3762 6.22435 21.4675 6.19339 21.5439 6.13811L23.8375 4.47744L26.0501 6.69L24.3894 8.98365C24.3341 9.06004 24.3031 9.15133 24.3005 9.2456C24.2979 9.33987 24.3238 9.43273 24.3748 9.51205C25.0937 10.6301 25.601 11.8547 25.8829 13.152C25.9029 13.2442 25.9502 13.3282 26.0187 13.393C26.0872 13.4578 26.1737 13.5005 26.2668 13.5154L29.0625 13.9628V15.0586ZM27.782 22.7772C27.3172 22.6618 26.8455 22.5759 26.3699 22.5199C27.0948 21.9869 27.583 20.9999 27.583 19.8721C27.583 18.3136 26.6456 17.3454 25.1367 17.3454C23.6278 17.3454 22.6904 18.3136 22.6904 19.8721C22.6904 20.9975 23.1765 21.9827 23.8989 22.5166C23.423 22.5717 22.9515 22.6591 22.4875 22.7782C21.0598 23.1453 20.2734 23.9384 20.2734 25.0113V28.3738C20.2734 28.9794 20.7661 29.4721 21.3717 29.4721H28.9018C29.5073 29.4721 30.0001 28.9794 30.0001 28.3738V25.0113C30 23.9412 29.1916 23.1269 27.782 22.7772ZM25.1367 18.2829C25.7002 18.2829 26.6455 18.4894 26.6455 19.8721C26.6455 21.0268 25.9546 22.0024 25.1367 22.0024C24.3189 22.0024 23.6279 21.0268 23.6279 19.8721C23.6279 18.4894 24.5732 18.2829 25.1367 18.2829ZM29.0625 28.3738C29.0625 28.4609 28.9889 28.5346 28.9017 28.5346H28.0031V25.929C28.0031 25.8046 27.9537 25.6854 27.8658 25.5975C27.7779 25.5096 27.6586 25.4602 27.5343 25.4602C27.41 25.4602 27.2908 25.5096 27.2029 25.5975C27.115 25.6854 27.0656 25.8046 27.0656 25.929V28.5346H23.2078V25.929C23.2078 25.8046 23.1584 25.6854 23.0705 25.5975C22.9826 25.5096 22.8634 25.4602 22.7391 25.4602C22.6147 25.4602 22.4955 25.5096 22.4076 25.5975C22.3197 25.6854 22.2703 25.8046 22.2703 25.929V28.5346H21.3717C21.2846 28.5346 21.2109 28.461 21.2109 28.3738V25.0113C21.2109 24.237 22.0321 23.8633 22.721 23.6862C23.5027 23.4846 24.3068 23.3827 25.1141 23.3828C25.9225 23.3828 26.7386 23.4843 27.5563 23.6871C28.1188 23.8266 29.0625 24.1842 29.0625 25.0113V28.3738ZM17.6453 17.332C17.1805 17.2166 16.7088 17.1306 16.2332 17.0747C16.9581 16.5417 17.4463 15.5546 17.4463 14.4268C17.4463 12.8684 16.5089 11.9002 15 11.9002C13.4911 11.9002 12.5537 12.8684 12.5537 14.4268C12.5537 15.5523 13.0398 16.5375 13.7622 17.0713C13.2864 17.1265 12.8148 17.2139 12.3509 17.3329C10.923 17.7001 10.1367 18.4931 10.1367 19.566V22.9285C10.1367 23.5341 10.6294 24.0268 11.235 24.0268H18.765C19.3706 24.0268 19.8633 23.5341 19.8633 22.9285V19.566C19.8633 18.4959 19.0549 17.6816 17.6453 17.332ZM15 12.8377C15.5635 12.8377 16.5088 13.0441 16.5088 14.4268C16.5088 15.5816 15.8179 16.5572 15 16.5572C14.1821 16.5572 13.4912 15.5816 13.4912 14.4268C13.4912 13.0441 14.4365 12.8377 15 12.8377ZM18.9258 22.9285C18.9258 23.0156 18.8522 23.0893 18.765 23.0893H17.8663V20.4837C17.8663 20.3594 17.817 20.2402 17.7291 20.1523C17.6411 20.0644 17.5219 20.015 17.3976 20.015C17.2733 20.015 17.154 20.0644 17.0661 20.1523C16.9782 20.2402 16.9288 20.3594 16.9288 20.4837V23.0893H13.0712V20.4837C13.0712 20.3594 13.0218 20.2402 12.9339 20.1523C12.846 20.0644 12.7267 20.015 12.6024 20.015C12.4781 20.015 12.3589 20.0644 12.2709 20.1523C12.183 20.2402 12.1337 20.3594 12.1337 20.4837V23.0893H11.2351C11.1479 23.0893 11.0743 23.0157 11.0743 22.9285V19.566C11.0743 18.7917 11.8955 18.4181 12.5844 18.2409C13.3661 18.0394 14.1702 17.9375 14.9775 17.9376C15.7859 17.9376 16.6019 18.039 17.4196 18.2419C17.9821 18.3814 18.9258 18.7389 18.9258 19.566V22.9285H18.9258Z" fill="white"/>
</svg>
