<svg width="45" height="45" viewBox="0 0 45 45" fill="none" xmlns="http://www.w3.org/2000/svg">
<circle cx="22.5" cy="22.5" r="22.5" fill="#FCE94E"/>
<path d="M25.9982 26.1743C25.9982 25.0606 25.9982 23.9394 25.9982 22.8258C25.9982 22.3637 26.1421 22.2197 26.5967 22.2197H31.3921C31.8012 22.2197 31.9679 22.3864 31.9679 22.7955V28.3637C31.9679 28.5531 31.9982 28.6288 32.2103 28.6212C32.5967 28.5985 33.1952 28.6137 33.5815 28.6137C33.7027 28.6137 33.8088 28.6288 33.8618 28.75C33.9149 28.8712 33.8694 28.9622 33.7937 29.0531C32.7558 30.2728 30.2785 32.8712 29.2406 34.0909C29.0815 34.2803 28.9603 34.2803 28.7937 34.0834C27.7634 32.8712 25.3543 30.2803 24.324 29.0682C24.2406 28.9697 24.18 28.8712 24.2482 28.7425C24.3164 28.6137 24.4149 28.6137 24.5361 28.6137C24.9224 28.6137 25.377 28.5985 25.7634 28.6212C25.9755 28.6288 26.0134 28.5531 26.0134 28.3637C25.9982 27.2197 25.9982 27.3182 25.9982 26.1743Z" fill="#4B4C4B"/>
<path d="M21.0366 27.4319C20.9306 27.3637 20.8775 27.2349 20.8927 27.1137C20.9003 26.7728 20.8927 26.4395 20.9003 26.0985C20.9003 26.0076 20.87 25.9773 20.7866 25.9698C20.0745 25.8637 19.4003 25.5834 18.8245 25.1592C18.6579 25.0455 18.5063 24.9167 18.37 24.7728C18.2639 24.6516 18.2488 24.5531 18.3472 24.4243C18.5669 24.1288 18.7866 23.841 19.0139 23.5531C19.1351 23.4016 19.2563 23.3864 19.4079 23.5152C19.8775 23.9395 20.4457 24.2349 21.0594 24.3713C21.5745 24.4773 22.0669 24.447 22.5366 24.1667C23.0291 23.8713 23.2715 23.091 22.6275 22.591C22.2942 22.3334 21.9003 22.1819 21.5063 22.0152C21.0139 21.8107 20.5139 21.6288 20.0442 21.3788C19.5745 21.1288 19.1579 20.8258 18.8472 20.3864C18.5215 19.9243 18.3851 19.3637 18.4533 18.8031C18.5745 17.7122 19.2336 17.0455 20.1882 16.6213C20.3851 16.5379 20.5897 16.4773 20.8018 16.4395C20.8851 16.4243 20.8927 16.3864 20.8927 16.3182C20.8927 15.9546 20.8927 15.5834 20.8927 15.2198C20.8927 15.0228 20.976 14.9395 21.173 14.9395H22.0215C22.1957 14.9395 22.2715 15.0152 22.2715 15.1895V16.2879C22.2715 16.3637 22.2942 16.394 22.37 16.4016C23.0897 16.4849 23.7715 16.7728 24.3397 17.2198C24.37 17.2425 24.4003 17.2728 24.4306 17.3031C24.5594 17.4243 24.5745 17.4925 24.4836 17.644C24.3094 17.9622 24.1351 18.2728 23.9609 18.591C23.8624 18.7652 23.726 18.7955 23.5594 18.6667C23.3397 18.4925 23.1048 18.341 22.8472 18.2198C22.2942 17.9622 21.726 17.8485 21.1275 18.0076C20.726 18.1137 20.3775 18.3031 20.2412 18.7349C20.1275 19.091 20.2412 19.4319 20.5215 19.6743C20.8851 20.0001 21.3321 20.1667 21.7791 20.341C22.3169 20.5531 22.8548 20.7576 23.37 21.0304C23.7336 21.2198 24.0518 21.4773 24.3094 21.7879C24.5897 22.1288 24.7185 22.5379 24.7563 22.9773C24.7563 23.0228 24.7639 23.0758 24.7639 23.1213C24.7866 23.1667 24.7563 23.2273 24.7866 23.2728V23.3485C24.7563 23.5228 24.7715 23.7046 24.726 23.8788C24.6124 24.3182 24.4003 24.7198 24.0897 25.0607C23.6427 25.5607 23.0745 25.8485 22.4306 25.9925C22.3548 25.9925 22.3018 26.0607 22.3018 26.1364V26.1516C22.3094 26.4849 22.3018 26.8258 22.3018 27.1667C22.3018 27.2955 22.2563 27.394 22.12 27.4319H21.0366Z" fill="#4B4C4B"/>
<path d="M22.2499 29.227C22.015 29.2497 21.7726 29.2573 21.5302 29.2573C17.0756 29.2573 13.462 25.6437 13.462 21.1891C13.462 16.7346 17.0756 13.121 21.5302 13.121C25.9847 13.121 29.5984 16.7346 29.5984 21.1891H31.9469V21.1816C31.9393 15.5149 27.1969 10.7725 21.5378 10.7725C15.7878 10.7649 11.1211 15.424 11.1211 21.174V21.1891C11.1211 26.8558 15.8711 31.5982 21.5302 31.5982C22.4544 31.5982 23.3787 31.477 24.2726 31.2346L22.2499 29.227Z" fill="#4B4C4B"/>
</svg>
