<svg width="1014" height="950" viewBox="0 0 1014 950" fill="none" xmlns="http://www.w3.org/2000/svg">
<path d="M510.515 782V731.5H536.515V782H570.015V808H536.515V883.5H570.015V909H510.515V808H489.515V782H510.515Z" fill="black"/>
<path fill-rule="evenodd" clip-rule="evenodd" d="M359.515 782H385.515V797C391.681 790.667 409.315 778.8 430.515 782C457.015 786 483.015 802 479.015 852C475.015 902 442.515 913 414.015 909C391.215 905.8 384.181 892.333 383.515 886V950H359.515V782ZM420.515 807C394.915 805.4 386.848 823 386.015 832C385.515 836.833 384.815 848.6 386.015 857C387.515 867.5 390.515 882.5 420.515 884C444.515 885.2 452.182 866.5 453.015 857C453.015 857 454 843.5 453.015 832C452.03 820.5 440 808 420.515 807Z" fill="black"/>
<path d="M84.5148 831H110.015C111.181 821.5 108.115 799.7 86.5148 788.5C59.5148 774.5 25.5148 783 12.5148 802.5C-0.485188 822 -5.98519 858.5 9.01481 881.5C24.0148 904.5 44.015 917.5 86.5148 902.5C105.315 894.1 110.015 871.333 110.015 861H84.5148C84.8481 867.667 81.4146 881.5 65.0146 883.5C44.5147 886 31.0146 879.5 28.0146 865.5C25.0146 851.5 20.5146 817.5 41.0146 810C61.5146 802.5 84.5148 808 84.5148 831Z" fill="black"/>
<path d="M205.015 782V808H156.515V909H130.015V782H205.015Z" fill="black"/>
<path d="M220.015 782H245.515C244.681 795.833 243.515 827.4 245.515 843C248.015 862.5 249.515 872.5 280.015 873.5C304.415 874.3 308.848 853.5 308.015 843V782H334.015V950H236.515V924.5H309.015V883.5C303.015 889.833 285.615 901.8 264.015 899C228.415 896.2 219.848 860.5 220.015 843V782Z" fill="black"/>
<path fill-rule="evenodd" clip-rule="evenodd" d="M597.515 782V808H663.515V835.5C656.515 828.833 636.515 817.3 612.515 824.5C582.515 833.5 581.015 860.5 584.015 875.5C587.015 890.5 597.515 911 637.015 909C649.815 909 660.015 900.333 663.515 896V909H705.515V883.5H689.515V782H597.515ZM608.515 866C606.915 849.2 626.848 847 637.015 848C645.848 848.5 661.1 852.8 661.5 866C661.9 879.2 648.515 883.5 640.515 884C630.515 885 610.115 882.8 608.515 866Z" fill="black"/>
<path d="M725.015 756.5V731.5H751.515V756.5H725.015Z" fill="black"/>
<path d="M725.015 782H751.515V909H725.015V782Z" fill="black"/>
<path d="M801.515 909H775.515V782H883.015V909H857.015V808H801.515V909Z" fill="black"/>
<path fill-rule="evenodd" clip-rule="evenodd" d="M1004.51 879V904C976.681 911.667 918.215 916 907.015 872C893.015 817 918.015 782 955.515 782C993.015 782 1009.51 804 1012.01 825C1014.01 841.8 1012.85 854 1012.01 858H929.015C929.681 866.5 937.115 883.5 961.515 883.5C985.915 883.5 1000.35 880.5 1004.51 879ZM928.515 832.5H987.015C986.848 823.667 980.715 806.2 957.515 807C934.315 807.8 928.515 824.333 928.515 832.5Z" fill="black"/>
<path d="M733.514 131.5V0.5H516.014L602.014 131.5H733.514Z" fill="black"/>
<path d="M733.514 390V521H516.014L602.014 390H733.514Z" fill="black"/>
<path d="M480.515 0L517.515 0.5C483.348 34.8333 414.314 134.6 411.514 259C408.714 383.4 481.681 485.5 518.514 521H465.514C385.515 515.333 225.215 455 224.015 259C222.815 63 394.515 4.66667 480.515 0Z" fill="black"/>
</svg>
