<svg width="45" height="45" viewBox="0 0 45 45" fill="none" xmlns="http://www.w3.org/2000/svg">
<circle cx="22.5" cy="22.5" r="22.5" fill="#FCE94E"/>
<path d="M26.4065 20.1562C26.6137 20.1562 26.8124 20.0739 26.9589 19.9274C27.1054 19.7809 27.1877 19.5822 27.1877 19.375V18.7295C27.1855 17.6828 26.777 16.6778 26.0483 15.9263C25.3196 15.1749 24.3277 14.7357 23.2815 14.7013V13.125C23.2815 12.9178 23.1992 12.7191 23.0527 12.5726C22.9062 12.4261 22.7075 12.3438 22.5002 12.3438C22.293 12.3438 22.0943 12.4261 21.9478 12.5726C21.8013 12.7191 21.719 12.9178 21.719 13.125V14.7013C20.7923 14.7308 19.9041 15.0785 19.2037 15.686C18.5033 16.2935 18.0335 17.1237 17.8732 18.0369C17.713 18.9501 17.8721 19.8906 18.3239 20.7002C18.7756 21.5099 19.4924 22.1393 20.3537 22.4825L24.0666 23.9684C24.6016 24.1824 25.0453 24.5761 25.3215 25.0818C25.5978 25.5875 25.6893 26.1736 25.5803 26.7394C25.4713 27.3052 25.1687 27.8154 24.7244 28.1823C24.2801 28.5492 23.7219 28.75 23.1457 28.75H21.8548C21.1974 28.7493 20.5672 28.4878 20.1023 28.0229C19.6375 27.5581 19.376 26.9279 19.3752 26.2705V25.625C19.3752 25.4178 19.2929 25.2191 19.1464 25.0726C18.9999 24.9261 18.8012 24.8438 18.594 24.8438C18.3868 24.8438 18.1881 24.9261 18.0416 25.0726C17.8951 25.2191 17.8128 25.4178 17.8128 25.625V26.2705C17.815 27.3172 18.2235 28.3222 18.9522 29.0737C19.6809 29.8251 20.6728 30.2643 21.719 30.2987V31.875C21.719 32.0822 21.8013 32.2809 21.9478 32.4274C22.0943 32.5739 22.293 32.6562 22.5002 32.6562C22.7075 32.6562 22.9062 32.5739 23.0527 32.4274C23.1992 32.2809 23.2815 32.0822 23.2815 31.875V30.2987C24.2082 30.2692 25.0964 29.9215 25.7968 29.314C26.4972 28.7065 26.967 27.8763 27.1273 26.9631C27.2875 26.0499 27.1284 25.1094 26.6766 24.2998C26.2249 23.4901 25.5081 22.8607 24.6468 22.5175L20.9339 21.0316C20.3989 20.8176 19.9552 20.4239 19.679 19.9182C19.4027 19.4125 19.3112 18.8264 19.4202 18.2606C19.5292 17.6948 19.8318 17.1846 20.2761 16.8177C20.7204 16.4508 21.2786 16.25 21.8548 16.25H23.1457C23.8031 16.2507 24.4333 16.5122 24.8982 16.9771C25.363 17.4419 25.6245 18.0721 25.6253 18.7295V19.375C25.6253 19.5822 25.7076 19.7809 25.8541 19.9274C26.0006 20.0739 26.1993 20.1562 26.4065 20.1562Z" fill="#4B4C4B"/>
</svg>
