<svg width="50" height="50" viewBox="0 0 50 50" fill="none" xmlns="http://www.w3.org/2000/svg">
<path d="M4.6875 42.2946H8.86688C9.33073 42.2933 9.78298 42.1495 10.1624 41.8826C10.5418 41.6158 10.83 41.2388 10.988 40.8026H12.4848C12.7805 40.8023 13.0709 40.8815 13.3255 41.0319L19.3566 44.5475C20.9486 45.4783 22.7439 46.0061 24.5863 46.0851C26.4288 46.1642 28.2627 45.792 29.9286 45.0011L45.1157 37.8062C45.8137 37.4763 46.3618 36.8956 46.6508 36.1796C46.9397 35.4637 46.9483 34.6652 46.6748 33.9432C46.4012 33.2212 45.8657 32.6288 45.1749 32.2841C44.4841 31.9393 43.6888 31.8675 42.9474 32.083L34.5615 34.5188C34.322 33.8418 33.8791 33.2554 33.2934 32.8399C32.7076 32.4244 32.0078 32.2001 31.2897 32.1978H25.6424C25.1736 32.1981 24.7144 32.0647 24.3187 31.8133L21.5263 30.0406C20.3593 29.2991 19.0051 28.9055 17.6224 28.9061H10.9861C10.8273 28.4714 10.5389 28.0958 10.16 27.8301C9.78105 27.5643 9.32973 27.4212 8.86688 27.4199H4.6875C4.27324 27.4204 3.87609 27.5852 3.58317 27.8781C3.29025 28.171 3.12547 28.5682 3.125 28.9824V40.7321C3.12548 41.1463 3.29025 41.5435 3.58317 41.8364C3.87609 42.1293 4.27325 42.2941 4.6875 42.2946ZM4.6875 28.9824H8.86688C9.05331 28.9826 9.23204 29.0568 9.3639 29.1886C9.49576 29.3204 9.56999 29.499 9.57031 29.6855C9.57102 29.8932 9.65391 30.0921 9.80088 30.2389C9.94784 30.3856 10.1469 30.4682 10.3546 30.4686H17.6224C18.7084 30.4683 19.772 30.7774 20.6886 31.3597L23.481 33.1324C24.1271 33.543 24.8769 33.7608 25.6424 33.7603H31.2897C31.7964 33.7663 32.2804 33.9718 32.6366 34.3322C32.9929 34.6927 33.1926 35.179 33.1926 35.6858C33.1926 36.1926 32.9928 36.679 32.6366 37.0394C32.2803 37.3998 31.7964 37.6053 31.2896 37.6113H23.2063C22.9991 37.6113 22.8004 37.6936 22.6539 37.8401C22.5074 37.9866 22.4251 38.1853 22.4251 38.3925C22.4251 38.5997 22.5074 38.7984 22.6539 38.9449C22.8004 39.0915 22.9991 39.1738 23.2063 39.1738H31.2897C32.1411 39.171 32.962 38.8562 33.597 38.289C34.2321 37.7218 34.6371 36.9415 34.7356 36.0957L43.3861 33.5829C43.7483 33.484 44.1344 33.5236 44.469 33.6941C44.8035 33.8646 45.0625 34.1536 45.1953 34.5049C45.3281 34.8561 45.3252 35.2442 45.1872 35.5934C45.0491 35.9426 44.7859 36.2278 44.4488 36.3932L29.2595 43.5889C27.8234 44.2715 26.2422 44.5927 24.6536 44.5246C23.065 44.4565 21.5171 44.0012 20.1446 43.1983L14.1121 39.6819C13.2901 39.1379 12.0691 39.2409 11.1328 39.2402V33.5918C11.1297 33.3866 11.0461 33.1908 10.8999 33.0468C10.7537 32.9028 10.5567 32.822 10.3515 32.822C10.1463 32.822 9.94931 32.9028 9.80313 33.0468C9.65696 33.1909 9.57331 33.3866 9.57027 33.5918V40.0291C9.56995 40.2155 9.49572 40.3942 9.36386 40.526C9.232 40.6578 9.05327 40.7319 8.86684 40.7321H4.6875V28.9824Z" fill="white"/>
<path d="M7.12968 30.7139C6.92438 30.7168 6.72848 30.8004 6.58433 30.9466C6.44019 31.0928 6.35938 31.2898 6.35938 31.4951C6.35938 31.7005 6.44019 31.8975 6.58433 32.0437C6.72848 32.1899 6.92438 32.2735 7.12968 32.2764C7.33497 32.2735 7.53087 32.1899 7.67502 32.0437C7.81917 31.8975 7.89998 31.7005 7.89998 31.4951C7.89998 31.2898 7.81917 31.0928 7.67502 30.9466C7.53087 30.8004 7.33497 30.7168 7.12968 30.7139Z" fill="white"/>
<path d="M24.3492 22.3959C25.6782 22.3944 26.9523 21.8658 27.8921 20.926C28.8318 19.9862 29.3603 18.712 29.3617 17.383C29.3617 17.2804 29.3416 17.1788 29.3023 17.084C29.2631 16.9892 29.2055 16.9031 29.133 16.8305C29.0604 16.758 28.9743 16.7004 28.8795 16.6612C28.7847 16.6219 28.6831 16.6018 28.5805 16.6018H28.0646L25.4767 9.70061C26.1015 9.78369 26.7369 9.72774 27.3375 9.53676C27.9382 9.34577 28.4892 9.02447 28.9512 8.59581C29.358 8.21019 29.8452 7.91953 30.3778 7.74475C30.9104 7.56998 31.4751 7.51543 32.0312 7.58504V28.1252H28.5805C28.3754 28.1284 28.1797 28.2121 28.0358 28.3583C27.8919 28.5045 27.8112 28.7014 27.8112 28.9065C27.8113 29.1116 27.8919 29.3085 28.0358 29.4547C28.1798 29.6008 28.3754 29.6845 28.5805 29.6877H37.0445C37.2517 29.6877 37.4504 29.6054 37.597 29.4589C37.7435 29.3124 37.8258 29.1137 37.8258 28.9065C37.8258 28.6993 37.7435 28.5006 37.597 28.354C37.4504 28.2075 37.2517 28.1252 37.0445 28.1252H33.5938V7.58498C34.1499 7.51545 34.7146 7.57001 35.2471 7.74474C35.7796 7.91947 36.2669 8.21003 36.6737 8.59553C37.1358 9.02422 37.6868 9.34556 38.2875 9.53658C38.8881 9.7276 39.5235 9.78357 40.1483 9.70051L37.5604 16.6018H37.0445C36.9419 16.6018 36.8403 16.6219 36.7455 16.6612C36.6507 16.7004 36.5646 16.758 36.492 16.8305C36.4195 16.9031 36.3619 16.9892 36.3227 17.084C36.2834 17.1788 36.2633 17.2804 36.2633 17.383C36.512 24.0207 46.0378 24.0249 46.2891 17.383C46.2891 17.2804 46.2689 17.1788 46.2296 17.084C46.1904 16.9892 46.1328 16.9031 46.0603 16.8305C45.9877 16.758 45.9016 16.7004 45.8068 16.6612C45.712 16.6219 45.6104 16.6018 45.5078 16.6018H44.9912L42.4033 9.70061H44.4496C44.6548 9.69756 44.8506 9.6139 44.9946 9.46772C45.1386 9.32153 45.2194 9.12455 45.2193 8.91934C45.2193 8.71412 45.1386 8.51715 44.9946 8.37097C44.8505 8.22479 44.6548 8.14115 44.4496 8.13811H39.3418C38.7558 8.13664 38.194 7.90401 37.7785 7.49076C37.2298 6.95634 36.571 6.54809 35.8483 6.29451C35.1255 6.04092 34.3561 5.94811 33.5938 6.02254V4.68772C33.5907 4.48252 33.5071 4.28676 33.3609 4.14273C33.2147 3.99871 33.0177 3.91797 32.8125 3.91797C32.6073 3.91797 32.4103 3.99871 32.2641 4.14273C32.1179 4.28676 32.0343 4.48252 32.0312 4.68772V6.02248H31.3919C30.7332 6.02076 30.0808 6.14964 29.4722 6.40166C28.8637 6.65369 28.3111 7.02385 27.8465 7.49076C27.431 7.90401 26.8693 8.13664 26.2832 8.13811H21.1754C20.9702 8.14116 20.7744 8.22481 20.6304 8.371C20.4864 8.51718 20.4056 8.71416 20.4057 8.91938C20.4057 9.12459 20.4864 9.32157 20.6304 9.46775C20.7745 9.61392 20.9702 9.69757 21.1754 9.70061H23.2217L20.6338 16.6018H20.1172C20.0146 16.6018 19.913 16.6219 19.8182 16.6612C19.7234 16.7004 19.6373 16.758 19.5647 16.8305C19.4921 16.9031 19.4346 16.9892 19.3954 17.084C19.3561 17.1788 19.3359 17.2804 19.3359 17.383C19.3375 18.7121 19.8662 19.9863 20.8061 20.9261C21.7459 21.8658 23.0201 22.3944 24.3492 22.3959ZM41.2758 20.8334C40.4968 20.8323 39.741 20.5681 39.131 20.0836C38.5209 19.5992 38.0925 18.9228 37.915 18.1643H44.4471C44.451 18.1643 44.6327 18.1642 44.6373 18.1643C44.4598 18.9229 44.0312 19.5993 43.421 20.0838C42.8109 20.5683 42.0549 20.8325 41.2758 20.8334ZM39.2294 16.6018L41.2758 11.1445L43.3221 16.6018H39.2294ZM24.3492 20.8334C23.5701 20.8325 22.8141 20.5683 22.204 20.0838C21.5938 19.5993 21.1652 18.9229 20.9877 18.1643C20.9923 18.1642 21.1739 18.1643 21.1779 18.1643H27.5205C27.5245 18.1643 27.7054 18.1642 27.71 18.1643C27.5325 18.9228 27.1041 19.5992 26.494 20.0836C25.884 20.5681 25.1282 20.8323 24.3492 20.8334ZM24.3492 11.1448L26.3956 16.6018H22.3029L24.3492 11.1448Z" fill="white"/>
</svg>
