<svg width="45" height="45" viewBox="0 0 45 45" fill="none" xmlns="http://www.w3.org/2000/svg">
<circle cx="22.5" cy="22.5" r="22.5" fill="#FCE94E"/>
<path d="M32.4597 21.1869L31.043 19.541C30.7722 19.2285 30.5534 18.6452 30.5534 18.2285V16.4577C30.5534 15.3535 29.6472 14.4473 28.543 14.4473H26.7722C26.3659 14.4473 25.7722 14.2285 25.4597 13.9577L23.8138 12.541C23.0951 11.9264 21.918 11.9264 21.1888 12.541L19.5534 13.9681C19.2409 14.2285 18.6471 14.4473 18.2409 14.4473H16.4388C15.3346 14.4473 14.4284 15.3535 14.4284 16.4577V18.2389C14.4284 18.6452 14.2096 19.2285 13.9492 19.541L12.543 21.1973C11.9388 21.916 11.9388 23.0827 12.543 23.8014L13.9492 25.4577C14.2096 25.7702 14.4284 26.3535 14.4284 26.7598V28.541C14.4284 29.6452 15.3346 30.5514 16.4388 30.5514H18.2409C18.6471 30.5514 19.2409 30.7702 19.5534 31.041L21.1993 32.4577C21.918 33.0723 23.0951 33.0723 23.8243 32.4577L25.4701 31.041C25.7826 30.7702 26.3659 30.5514 26.7826 30.5514H28.5534C29.6576 30.5514 30.5638 29.6452 30.5638 28.541V26.7702C30.5638 26.3639 30.7826 25.7702 31.0534 25.4577L32.4701 23.8119C33.0743 23.0931 33.0743 21.9056 32.4597 21.1869ZM26.8347 20.5306L21.8034 25.5619C21.6576 25.7077 21.4597 25.791 21.2513 25.791C21.043 25.791 20.8451 25.7077 20.6993 25.5619L18.1784 23.041C17.8763 22.7389 17.8763 22.2389 18.1784 21.9369C18.4805 21.6348 18.9805 21.6348 19.2826 21.9369L21.2513 23.9056L25.7305 19.4264C26.0326 19.1243 26.5326 19.1243 26.8347 19.4264C27.1368 19.7285 27.1368 20.2285 26.8347 20.5306Z" fill="#4B4C4B"/>
</svg>
