<svg width="45" height="45" viewBox="0 0 45 45" fill="none" xmlns="http://www.w3.org/2000/svg">
<circle cx="22.5" cy="22.5" r="22.5" fill="#FCE94E"/>
<g clip-path="url(#clip0_774_7938)">
<mask id="mask0_774_7938" style="mask-type:luminance" maskUnits="userSpaceOnUse" x="10" y="10" width="25" height="25">
<path d="M10 10H35V35H10V10Z" fill="white"/>
</mask>
<g mask="url(#mask0_774_7938)">
<path fill-rule="evenodd" clip-rule="evenodd" d="M34.6949 15.5131C35.1017 15.9199 35.1017 16.5794 34.6949 16.9862L24.7991 26.8821C24.3923 27.2888 23.7327 27.2888 23.3259 26.8821L18.8542 22.4103L11.7782 29.4862C11.3714 29.893 10.7119 29.893 10.3051 29.4862C9.8983 29.0795 9.8983 28.4199 10.3051 28.0131L18.1176 20.2006C18.5244 19.7938 19.1839 19.7938 19.5907 20.2006L24.0625 24.6724L33.2218 15.5131C33.6285 15.1063 34.2881 15.1063 34.6949 15.5131Z" fill="#4B4C4B"/>
<path fill-rule="evenodd" clip-rule="evenodd" d="M26.668 16.2497C26.668 15.6744 27.1343 15.208 27.7096 15.208H33.9596C34.5349 15.208 35.0013 15.6744 35.0013 16.2497V22.4997C35.0013 23.075 34.5349 23.5413 33.9596 23.5413C33.3843 23.5413 32.918 23.075 32.918 22.4997V17.2913H27.7096C27.1343 17.2913 26.668 16.825 26.668 16.2497Z" fill="#4B4C4B"/>
</g>
</g>
<defs>
<clipPath id="clip0_774_7938">
<rect width="25" height="25" fill="white" transform="translate(10 10)"/>
</clipPath>
</defs>
</svg>
