<svg width="45" height="45" viewBox="0 0 45 45" fill="none" xmlns="http://www.w3.org/2000/svg">
<circle cx="22.5" cy="22.5" r="22.5" fill="#FCE94E"/>
<path fill-rule="evenodd" clip-rule="evenodd" d="M27.707 12.2589C27.707 11.589 27.0839 11.0933 26.4311 11.2439L13.9311 14.1285C13.4585 14.2376 13.1237 14.6585 13.1237 15.1435V30.875H12.6029C12.3152 30.875 12.082 31.1083 12.082 31.3959C12.082 31.6835 12.3152 31.9167 12.6029 31.9167H13.6425H13.6445H13.6466H18.332V28.7917C18.332 28.2164 18.7984 27.75 19.3737 27.75H21.457C22.0323 27.75 22.4987 28.2164 22.4987 28.7917V31.9167H27.1841H27.1862H27.1883H27.707V12.2589ZM16.7695 17.3334C16.4819 17.3334 16.2487 17.5666 16.2487 17.8542V18.8959C16.2487 19.1835 16.4819 19.4167 16.7695 19.4167H17.8112C18.0988 19.4167 18.332 19.1835 18.332 18.8959V17.8542C18.332 17.5666 18.0988 17.3334 17.8112 17.3334H16.7695ZM16.2487 20.9792C16.2487 20.6916 16.4819 20.4584 16.7695 20.4584H17.8112C18.0988 20.4584 18.332 20.6916 18.332 20.9792V22.0209C18.332 22.3085 18.0988 22.5417 17.8112 22.5417H16.7695C16.4819 22.5417 16.2487 22.3085 16.2487 22.0209V20.9792ZM16.7695 23.5834C16.4819 23.5834 16.2487 23.8166 16.2487 24.1042V25.1459C16.2487 25.4335 16.4819 25.6667 16.7695 25.6667H17.8112C18.0988 25.6667 18.332 25.4335 18.332 25.1459V24.1042C18.332 23.8166 18.0988 23.5834 17.8112 23.5834H16.7695ZM19.3737 17.8542C19.3737 17.5666 19.6069 17.3334 19.8945 17.3334H20.9362C21.2238 17.3334 21.457 17.5666 21.457 17.8542V18.8959C21.457 19.1835 21.2238 19.4167 20.9362 19.4167H19.8945C19.6069 19.4167 19.3737 19.1835 19.3737 18.8959V17.8542ZM19.8945 20.4584C19.6069 20.4584 19.3737 20.6916 19.3737 20.9792V22.0209C19.3737 22.3085 19.6069 22.5417 19.8945 22.5417H20.9362C21.2238 22.5417 21.457 22.3085 21.457 22.0209V20.9792C21.457 20.6916 21.2238 20.4584 20.9362 20.4584H19.8945ZM19.3737 24.1042C19.3737 23.8166 19.6069 23.5834 19.8945 23.5834H20.9362C21.2238 23.5834 21.457 23.8166 21.457 24.1042V25.1459C21.457 25.4335 21.2238 25.6667 20.9362 25.6667H19.8945C19.6069 25.6667 19.3737 25.4335 19.3737 25.1459V24.1042ZM23.0195 17.3334C22.7319 17.3334 22.4987 17.5666 22.4987 17.8542V18.8959C22.4987 19.1835 22.7319 19.4167 23.0195 19.4167H24.0612C24.3488 19.4167 24.582 19.1835 24.582 18.8959V17.8542C24.582 17.5666 24.3488 17.3334 24.0612 17.3334H23.0195ZM22.4987 20.9792C22.4987 20.6916 22.7319 20.4584 23.0195 20.4584H24.0612C24.3488 20.4584 24.582 20.6916 24.582 20.9792V22.0209C24.582 22.3085 24.3488 22.5417 24.0612 22.5417H23.0195C22.7319 22.5417 22.4987 22.3085 22.4987 22.0209V20.9792ZM23.0195 23.5834C22.7319 23.5834 22.4987 23.8166 22.4987 24.1042V25.1459C22.4987 25.4335 22.7319 25.6667 23.0195 25.6667H24.0612C24.3488 25.6667 24.582 25.4335 24.582 25.1459V24.1042C24.582 23.8166 24.3488 23.5834 24.0612 23.5834H23.0195Z" fill="#4B4C4B"/>
<path d="M28.75 14.9277V31.9163H31.3527H31.3542H31.3556H32.3958C32.6834 31.9163 32.9167 31.6831 32.9167 31.3955C32.9167 31.1078 32.6834 30.8746 32.3958 30.8746H31.875V17.134C31.875 16.7395 31.6521 16.3788 31.2992 16.2023L28.75 14.9277Z" fill="#4B4C4B"/>
<path d="M21.4583 31.916H19.375V28.791H21.4583V31.916Z" fill="#4B4C4B"/>
</svg>
