<svg width="45" height="45" viewBox="0 0 45 45" fill="none" xmlns="http://www.w3.org/2000/svg">
<circle cx="22.5" cy="22.5" r="22.5" fill="#FCE94E"/>
<g clip-path="url(#clip0_774_8334)">
<path d="M19.8387 35C19.7415 35 19.643 34.9806 19.549 34.94C19.2198 34.798 19.0418 34.4387 19.1282 34.0909L21.605 24.1213H14.9316C14.6901 24.1213 14.4641 24.0022 14.3275 23.8029C14.1909 23.6037 14.1614 23.3499 14.2485 23.1246L19.1441 10.4682C19.2533 10.186 19.5246 10 19.8272 10H26.5636C26.8111 10 27.0419 10.125 27.1771 10.3323C27.3123 10.5396 27.3337 10.8012 27.2339 11.0277L24.335 17.6078H30.0683C30.3362 17.6078 30.5827 17.754 30.7111 17.9891C30.8395 18.2241 30.8294 18.5106 30.6846 18.736L20.4553 34.6633C20.317 34.8787 20.0818 35 19.8387 35Z" fill="#4B4C4B"/>
</g>
<defs>
<clipPath id="clip0_774_8334">
<rect width="25" height="25" fill="white" transform="translate(10 10)"/>
</clipPath>
</defs>
</svg>
