<svg width="28" height="30" viewBox="0 0 28 30" fill="none" xmlns="http://www.w3.org/2000/svg">
<path fill-rule="evenodd" clip-rule="evenodd" d="M16.4923 6.08764C16.1917 5.78587 16.004 5.41599 16.004 4.96082V3.00746C16.004 2.52205 16.4001 2.12699 16.8855 2.12699H19.3398V1.74064C19.3398 1.01005 19.9377 0.412109 20.6683 0.412109H23.2267C23.9573 0.412109 24.5553 1.01005 24.5553 1.74064V2.12699H27.0095C27.4949 2.12699 27.891 2.52205 27.891 3.00746V4.96082C27.891 5.41599 27.7033 5.78587 27.4027 6.08764V9.48076C27.4027 10.1789 26.8307 10.7525 26.1309 10.7525H17.7641C17.0643 10.7525 16.4923 10.1789 16.4923 9.48076V6.08764ZM18.6191 3.06817H16.9452V4.96082C16.9452 5.19852 17.0846 5.37076 17.2615 5.51593L17.2628 5.51699C17.3253 5.56864 17.393 5.61587 17.4638 5.66087C18.0584 6.03723 19.2659 6.24852 20.6146 6.33405C20.8534 5.8394 21.3594 5.49682 21.9475 5.49682C22.5353 5.49682 23.0411 5.83899 23.28 6.33323C24.631 6.24687 25.8395 6.03493 26.4313 5.66082C26.5021 5.61582 26.5698 5.56864 26.6323 5.51699L26.6336 5.51593C26.8104 5.37076 26.9498 5.19852 26.9498 4.96082V3.06817H25.2758V3.93252C25.2758 4.47429 24.8329 4.91723 24.2911 4.91723H19.6039C19.0621 4.91723 18.6191 4.47429 18.6191 3.93252V3.06817ZM20.4971 7.26887C19.2796 7.18417 18.1707 6.98535 17.4335 6.69087V9.48076C17.4335 9.66229 17.5822 9.81135 17.7641 9.81135H26.1309C26.3128 9.81135 26.4615 9.66229 26.4615 9.48076V6.69035C25.7258 6.9834 24.6166 7.18258 23.3981 7.26793C23.2627 7.94558 22.6652 8.4554 21.9475 8.4554C21.2301 8.4554 20.6328 7.94599 20.4971 7.26887ZM23.6141 2.12699V1.74064C23.6141 1.52764 23.4397 1.35329 23.2267 1.35329H20.6683C20.4553 1.35329 20.281 1.52764 20.281 1.74064V2.12699H23.6141ZM24.3347 3.06817H19.5603V3.93252C19.5603 3.95646 19.5799 3.97605 19.6039 3.97605H24.2911C24.3151 3.97605 24.3347 3.95646 24.3347 3.93252V3.06817ZM21.4094 6.97611C21.4094 7.27352 21.6501 7.51423 21.9475 7.51423C22.2449 7.51423 22.4856 7.27352 22.4856 6.97611C22.4856 6.67982 22.2455 6.43799 21.9475 6.43799C21.6496 6.43799 21.4094 6.67982 21.4094 6.97611ZM23.822 28.6474H26.1519C26.4116 28.6474 26.6225 28.8583 26.6225 29.118C26.6225 29.3777 26.4116 29.5886 26.1519 29.5886H0.579963C0.455155 29.5886 0.335459 29.539 0.247207 29.4508C0.158955 29.3625 0.109375 29.2428 0.109375 29.118V3.54605C0.109375 3.28634 0.320257 3.07546 0.579963 3.07546C0.839669 3.07546 1.05055 3.28634 1.05055 3.54605V28.6474H2.9309V23.2936C2.9309 23.1688 2.98048 23.0491 3.06874 22.9608C3.15699 22.8726 3.27668 22.823 3.40149 22.823H6.43743C6.56224 22.823 6.68194 22.8726 6.77019 22.9608C6.85844 23.0491 6.90802 23.1688 6.90802 23.2936V28.6474H8.56932V20.2406C8.56932 20.1158 8.6189 19.9961 8.70715 19.9078C8.7954 19.8196 8.9151 19.77 9.0399 19.77H12.0759C12.2007 19.77 12.3204 19.8196 12.4087 19.9078C12.4969 19.9961 12.5465 20.1158 12.5465 20.2406V28.6474H14.2064V17.054C14.2064 16.9292 14.256 16.8095 14.3443 16.7212C14.4325 16.633 14.5522 16.5834 14.677 16.5834H17.7143C17.8391 16.5834 17.9588 16.633 18.0471 16.7212C18.1353 16.8095 18.1849 16.9292 18.1849 17.054V28.6474H19.8448V16.5301H18.9966C18.7238 16.5301 18.4948 16.3825 18.3818 16.1362C18.2693 15.8925 18.3055 15.6191 18.4823 15.4143L21.3177 12.074C21.4484 11.9185 21.6257 11.8346 21.834 11.8346C22.0367 11.8346 22.214 11.9155 22.3476 12.0707L22.3498 12.0732L25.1868 15.4155C25.3606 15.6196 25.3973 15.8928 25.285 16.1362C25.1716 16.3834 24.9408 16.5301 24.6715 16.5301H23.822V28.6474ZM3.87208 28.6474H5.96685V23.7642H3.87208V28.6474ZM9.51049 28.6474H11.6053V20.7112H9.51049V28.6474ZM15.1476 28.6474H17.2437V17.5246H15.1476V28.6474ZM20.786 28.6474H22.8808V16.0595C22.8808 15.9347 22.9304 15.815 23.0187 15.7267C23.1069 15.6385 23.2266 15.5889 23.3514 15.5889H24.0995L21.834 12.9201L19.5686 15.5889H20.3154C20.4402 15.5889 20.5599 15.6385 20.6482 15.7267C20.7364 15.815 20.786 15.9347 20.786 16.0595V28.6474ZM14.828 14.1027C13.8351 15.5546 12.4218 16.8666 10.666 17.8465L10.6659 17.8466C7.80461 19.4422 4.67255 19.7998 2.14343 19.0713C2.03413 19.0399 1.93993 18.9698 1.87827 18.8742C1.81661 18.7787 1.79166 18.664 1.80803 18.5514C1.82441 18.4388 1.881 18.336 1.96734 18.262C2.05368 18.1879 2.16392 18.1476 2.27767 18.1486C4.05261 18.1636 5.84079 17.7573 7.7689 16.6819C9.39896 15.7725 11.2781 14.0423 12.3694 12.4533L11.6118 11.9458C11.5395 11.8973 11.4821 11.8299 11.4459 11.7508C11.4097 11.6717 11.3961 11.5841 11.4066 11.4978C11.4171 11.4115 11.4514 11.3297 11.5056 11.2617C11.5597 11.1937 11.6317 11.142 11.7135 11.1123L15.2295 9.83946C15.2966 9.81515 15.3684 9.80642 15.4393 9.81394C15.5103 9.82145 15.5786 9.84502 15.6392 9.88285C15.6997 9.92069 15.7508 9.97179 15.7886 10.0323C15.8265 10.0928 15.8501 10.1611 15.8576 10.2321L16.2741 14.1422C16.2836 14.2313 16.2674 14.3211 16.2276 14.4013C16.1878 14.4815 16.126 14.5487 16.0493 14.5949C15.9727 14.6412 15.8844 14.6646 15.7949 14.6625C15.7054 14.6604 15.6184 14.6327 15.544 14.5829L14.828 14.1027ZM14.9562 13.0554L15.2315 13.2401L14.9853 10.9288L12.9076 11.681L13.279 11.9298C13.38 11.9975 13.4509 12.1016 13.4768 12.2204C13.5027 12.3392 13.4817 12.4634 13.418 12.5671C12.3093 14.3722 10.1134 16.4517 8.22743 17.5038C7.5972 17.8553 6.98055 18.1405 6.37379 18.367C7.6499 18.1661 8.95655 17.7222 10.2074 17.0246C11.9773 16.0369 13.3726 14.6866 14.294 13.1985C14.3273 13.1448 14.371 13.0982 14.4227 13.0618C14.4744 13.0253 14.5329 12.9996 14.5947 12.9863C14.6565 12.9729 14.7204 12.9721 14.7825 12.984C14.8446 12.9959 14.9037 13.0202 14.9562 13.0554Z" fill="white"/>
</svg>
