<svg width="50" height="50" viewBox="0 0 50 50" fill="none" xmlns="http://www.w3.org/2000/svg">
<g clip-path="url(#clip0_774_8403)">
<path d="M47.632 23.4375H47.6562V20.3125C47.6562 18.1586 45.9039 16.4062 43.75 16.4062H43.7016C43.7219 16.1461 43.75 15.8883 43.75 15.625C43.75 10.025 39.1938 5.46875 33.5938 5.46875C31.2359 5.46875 29.0695 6.28359 27.3438 7.63594V4.6875C27.3438 2.53359 25.5914 0.78125 23.4375 0.78125H4.6875C2.53359 0.78125 0.78125 2.53359 0.78125 4.6875V45.3125C0.78125 47.4664 2.53359 49.2188 4.6875 49.2188H23.4375C25.5914 49.2188 27.3438 47.4664 27.3438 45.3125V44.5312H45.3125C47.4664 44.5312 49.2188 42.7789 49.2188 40.625V26.5625C49.2188 25.2805 48.5891 24.15 47.632 23.4375ZM43.75 17.9688C45.0422 17.9688 46.0938 19.0203 46.0938 20.3125V22.7352C45.8414 22.6836 45.5797 22.6562 45.3125 22.6562H40.9008C42.1625 21.3469 43.05 19.7336 43.468 17.9688H43.75ZM33.5938 7.03125C38.332 7.03125 42.1875 10.8867 42.1875 15.625C42.1875 18.4367 40.8125 21.0438 38.5117 22.6562H34.375V20.9828C35.7188 20.6336 36.7188 19.4203 36.7188 17.9688C36.7188 16.2453 35.3172 14.8438 33.5938 14.8438C32.732 14.8438 32.0312 14.143 32.0312 13.2812C32.0312 12.4195 32.732 11.7188 33.5938 11.7188C34.4555 11.7188 35.1562 12.4195 35.1562 13.2812H36.7188C36.7188 11.8297 35.7188 10.6164 34.375 10.2672V8.59375H32.8125V10.2672C31.4687 10.6164 30.4688 11.8297 30.4688 13.2812C30.4688 15.0047 31.8703 16.4062 33.5938 16.4062C34.4555 16.4062 35.1562 17.107 35.1562 17.9688C35.1562 18.8305 34.4555 19.5312 33.5938 19.5312C32.732 19.5312 32.0312 18.8305 32.0312 17.9688H30.4688C30.4688 19.4203 31.4687 20.6336 32.8125 20.9828V22.6562H28.6758C26.375 21.0438 25 18.4367 25 15.625C25 10.8867 28.8555 7.03125 33.5938 7.03125ZM18.0477 41.4062H2.34375V7.03125H25.7812V9.14453C24.3188 10.9047 23.4375 13.1633 23.4375 15.625C23.4375 15.8883 23.4656 16.1461 23.4859 16.4062H21.875C19.7211 16.4062 17.9688 18.1586 17.9688 20.3125V40.625C17.9688 40.8922 17.9961 41.1539 18.0477 41.4062ZM21.875 17.9688H23.7195C23.8469 18.5055 24.0203 19.0258 24.2313 19.5312H21.875V21.0938H25V21.0031C25.3703 21.5945 25.7977 22.1492 26.2867 22.6562H21.875C20.5828 22.6562 19.5312 21.6047 19.5312 20.3125C19.5312 19.0203 20.5828 17.9688 21.875 17.9688ZM4.6875 2.34375H23.4375C24.7297 2.34375 25.7812 3.39531 25.7812 4.6875V5.46875H2.34375V4.6875C2.34375 3.39531 3.39531 2.34375 4.6875 2.34375ZM25.7812 45.3125C25.7812 46.6047 24.7297 47.6562 23.4375 47.6562H4.6875C3.39531 47.6562 2.34375 46.6047 2.34375 45.3125V42.9688H18.75V42.9445C19.4625 43.9016 20.593 44.5312 21.875 44.5312H25.7812V45.3125ZM45.3125 42.9688H21.875C20.5828 42.9688 19.5312 41.9172 19.5312 40.625V23.4359C20.1844 23.9266 20.9961 24.2188 21.875 24.2188H45.3125C46.6047 24.2188 47.6562 25.2703 47.6562 26.5625V28.9062H38.2812C35.6961 28.9062 33.5938 31.0086 33.5938 33.5938C33.5938 36.1789 35.6961 38.2812 38.2812 38.2812H47.6562V40.625C47.6562 41.9172 46.6047 42.9688 45.3125 42.9688ZM47.6562 30.4688V36.7188H38.2812C36.5578 36.7188 35.1562 35.3172 35.1562 33.5938C35.1562 31.8703 36.5578 30.4688 38.2812 30.4688H47.6562Z" fill="white"/>
</g>
<defs>
<clipPath id="clip0_774_8403">
<rect width="50" height="50" fill="white"/>
</clipPath>
</defs>
</svg>
