<svg width="45" height="45" viewBox="0 0 45 45" fill="none" xmlns="http://www.w3.org/2000/svg">
<circle cx="22.5" cy="22.5" r="22.5" fill="#FCE94E"/>
<path d="M25.0864 15.5915C26.2424 16.3162 27.0529 17.5427 27.2005 18.9663C27.6719 19.1866 28.1951 19.3132 28.7498 19.3132C30.775 19.3132 32.4164 17.6718 32.4164 15.647C32.4164 13.6219 30.775 11.9805 28.7498 11.9805C26.744 11.9811 25.117 13.5932 25.0864 15.5915ZM22.6844 23.0987C24.7095 23.0987 26.3509 21.4569 26.3509 19.4321C26.3509 17.4073 24.7092 15.7659 22.6844 15.7659C20.6596 15.7659 19.0172 17.4076 19.0172 19.4324C19.0172 21.4573 20.6596 23.0987 22.6844 23.0987ZM24.2397 23.3486H21.1285C18.5399 23.3486 16.4339 25.4548 16.4339 28.0434V31.8482L16.4436 31.9078L16.7057 31.9898C19.176 32.7617 21.3222 33.0191 23.0887 33.0191C26.5391 33.0191 28.5389 32.0354 28.6622 31.9727L28.9071 31.8488H28.9333V28.0434C28.9342 25.4548 26.8283 23.3486 24.2397 23.3486ZM30.3058 19.5635H27.2186C27.1852 20.7986 26.6579 21.9109 25.824 22.7108C28.1249 23.395 29.8084 25.5288 29.8084 28.049V29.2215C32.8566 29.1098 34.6131 28.2459 34.7289 28.1879L34.9738 28.0637H35V24.2577C35 21.6694 32.894 19.5635 30.3058 19.5635ZM16.2508 19.3139C16.9681 19.3139 17.6354 19.1045 18.2007 18.7479C18.3804 17.5758 19.0088 16.5515 19.9064 15.8539C19.9101 15.7852 19.9167 15.7172 19.9167 15.6479C19.9167 13.6228 18.275 11.9814 16.2508 11.9814C14.2253 11.9814 12.5842 13.6228 12.5842 15.6479C12.5842 17.6722 14.2253 19.3139 16.2508 19.3139ZM19.5436 22.7108C18.7137 21.915 18.1883 20.8086 18.1499 19.5809C18.0354 19.5725 17.9221 19.5635 17.8054 19.5635H14.6946C12.106 19.5635 10 21.6694 10 24.2577V28.0631L10.0097 28.1217L10.2717 28.2044C12.2535 28.8231 14.0222 29.1083 15.5585 29.1981V28.049C15.5591 25.5288 17.242 23.3957 19.5436 22.7108Z" fill="#4B4C4B"/>
</svg>
