<svg width="45" height="45" viewBox="0 0 45 45" fill="none" xmlns="http://www.w3.org/2000/svg">
<circle cx="22.5" cy="22.5" r="22.5" fill="#FCE94E"/>
<path d="M33.3184 11.8705C33.2989 11.7826 33.2305 11.7143 33.1475 11.6899C30.2862 10.9916 23.6797 13.4819 20.1006 17.061C19.461 17.6957 18.8799 18.3842 18.3624 19.1166C17.2588 19.019 16.1553 19.102 15.2129 19.5121C12.5567 20.6791 11.7852 23.7309 11.5655 25.0395C11.5215 25.2934 11.6924 25.5375 11.9512 25.5815C11.9952 25.5863 12.0391 25.5912 12.0831 25.5863L16.3458 25.1176C16.3506 25.4399 16.3702 25.7621 16.4043 26.0795C16.4239 26.2992 16.5264 26.5092 16.6827 26.6654L18.3331 28.311C18.4893 28.4672 18.6993 28.5697 18.919 28.5893C19.2364 28.6235 19.5538 28.643 19.876 28.6479L19.4073 32.9057C19.378 33.1645 19.5684 33.3988 19.8272 33.4233C19.8711 33.4281 19.9151 33.4281 19.9541 33.4184C21.2627 33.2084 24.3194 32.4369 25.4815 29.7807C25.8917 28.8383 25.9747 27.7397 25.8819 26.641C26.6192 26.1235 27.3077 25.5375 27.9424 24.9028C31.5313 21.3334 34.0069 14.8735 33.3184 11.8705ZM27.669 20.6401C26.7559 21.5531 25.2715 21.558 24.3584 20.6401C23.4405 19.727 23.4405 18.2426 24.3584 17.3246C25.2715 16.4067 26.7559 16.4067 27.6739 17.3246C28.587 18.2426 28.587 19.727 27.669 20.6401Z" fill="#4B4C4B"/>
<path d="M18.2227 29.5021C17.9541 29.7707 17.5244 29.8732 17.0068 29.966C15.8447 30.1613 14.8193 29.1603 15.0293 27.9884C15.1074 27.5441 15.3467 26.9191 15.4932 26.7726C15.5762 26.6896 15.5811 26.5529 15.498 26.4699C15.4492 26.4211 15.3857 26.3967 15.3174 26.4064C14.668 26.4845 14.0625 26.7824 13.6035 27.2414C12.4512 28.3937 12.3438 32.6564 12.3438 32.6564C12.3438 32.6564 16.6113 32.549 17.7588 31.3967C18.2227 30.9328 18.5156 30.3322 18.5938 29.6779C18.6133 29.4777 18.3643 29.3556 18.2227 29.5021Z" fill="#4B4C4B"/>
</svg>
