<svg width="45" height="45" viewBox="0 0 45 45" fill="none" xmlns="http://www.w3.org/2000/svg">
<circle cx="22.5" cy="22.5" r="22.5" fill="#FCE94E"/>
<g clip-path="url(#clip0_774_7813)">
<path d="M15.9336 18.1115C16.0324 19.2938 16.2594 20.9133 16.7729 22.6137C17.8635 26.2249 19.7902 28.7926 22.5023 30.2518C25.2145 28.7926 27.1412 26.2249 28.2317 22.6137C28.7453 20.9134 28.9722 19.2939 29.0711 18.1115L22.5023 14.8271L15.9336 18.1115Z" fill="#4B4C4B"/>
<path d="M33.5292 15.8426C33.5155 15.5793 33.3612 15.3436 33.1253 15.2256L22.8287 10.0773C22.6225 9.97423 22.3798 9.97423 22.1736 10.0773L11.877 15.2256C11.6411 15.3436 11.4868 15.5793 11.4731 15.8426C11.4653 15.9925 11.296 19.5618 12.5119 23.7057C13.2313 26.1575 14.2895 28.299 15.6571 30.0706C17.3805 32.3031 19.5955 33.9455 22.2407 34.9521C22.3246 34.984 22.4128 35 22.5012 35C22.5895 35 22.6777 34.984 22.7617 34.9521C25.4068 33.9455 27.6219 32.3031 29.3453 30.0706C30.7128 28.299 31.771 26.1575 32.4905 23.7057C33.7063 19.5618 33.537 15.9925 33.5292 15.8426ZM22.8258 31.732C22.7235 31.7826 22.6123 31.8079 22.5012 31.8079C22.39 31.8079 22.2788 31.7826 22.1766 31.732C18.9152 30.1195 16.625 27.194 15.3695 23.0369C14.7416 20.9576 14.5149 18.9984 14.4353 17.7209C14.417 17.4276 14.5759 17.1517 14.8388 17.0203L22.1737 13.3528C22.3799 13.2498 22.6226 13.2498 22.8288 13.3528L30.1637 17.0203C30.4266 17.1517 30.5855 17.4276 30.5672 17.721C30.4875 18.9985 30.2608 20.9578 29.6329 23.0369C28.3773 27.194 26.0871 30.1194 22.8258 31.732Z" fill="#4B4C4B"/>
</g>
<defs>
<clipPath id="clip0_774_7813">
<rect width="25" height="25" fill="white" transform="translate(10 10)"/>
</clipPath>
</defs>
</svg>
