<svg width="50" height="50" viewBox="0 0 50 50" fill="none" xmlns="http://www.w3.org/2000/svg">
<g clip-path="url(#clip0_774_8447)">
<path d="M36.7491 28.7302C38.9555 24.6006 39.6047 19.8157 38.5785 15.2474C37.5522 10.6792 34.9187 6.63176 31.158 3.84271C27.3972 1.05366 22.7595 -0.291323 18.0901 0.0528597C13.4207 0.397042 9.03034 2.40748 5.71918 5.7178C2.41301 9.0301 0.406184 13.4195 0.0640151 18.0869C-0.278154 22.7544 1.06709 27.3895 3.85485 31.1485C6.64262 34.9076 10.6875 37.5406 15.2533 38.5683C19.819 39.5959 24.602 38.9499 28.7315 36.7478L40.3281 48.3445C41.3941 49.3941 42.8318 49.9798 44.3278 49.974C45.8238 49.9682 47.2569 49.3714 48.3147 48.3136C49.3726 47.2557 49.9695 45.8227 49.9754 44.3267C49.9813 42.8307 49.3957 41.393 48.3461 40.3269L36.7491 28.7302ZM7.3764 31.6697C5.76933 30.0771 4.49268 28.1827 3.61975 26.0954C2.74683 24.008 2.29483 21.7688 2.28971 19.5063C2.28458 17.2438 2.72644 15.0025 3.5899 12.9112C4.45337 10.82 5.72143 8.91984 7.32127 7.32C8.92112 5.72015 10.8212 4.45209 12.9125 3.58862C15.0038 2.72516 17.245 2.2833 19.5076 2.28843C21.7701 2.29355 24.0093 2.74555 26.0966 3.61847C28.184 4.4914 30.0783 5.76805 31.6709 7.37512C33.278 8.96771 34.5547 10.8621 35.4276 12.9494C36.3005 15.0368 36.7525 17.276 36.7576 19.5385C36.7628 21.801 36.3209 24.0423 35.4574 26.1335C34.594 28.2248 33.3259 30.1249 31.7261 31.7248C30.1262 33.3246 28.2261 34.5927 26.1348 35.4562C24.0435 36.3196 21.8023 36.7615 19.5398 36.7564C17.2773 36.7512 15.038 36.2992 12.9507 35.4263C10.8633 34.5534 8.96899 33.2767 7.3764 31.6697ZM46.6885 46.6872C46.0643 47.31 45.2186 47.6598 44.3369 47.6598C43.4551 47.6598 42.6094 47.31 41.9852 46.6872L30.7783 35.4802C32.5996 34.1884 34.1897 32.5983 35.4816 30.777L46.6886 41.9839C47.3091 42.6093 47.6573 43.4546 47.6573 44.3356C47.6573 45.2166 47.3091 46.0618 46.6886 46.6872H46.6885ZM28.9254 10.7962C24.5993 11.1216 21.8669 10.0044 20.5752 7.3804C20.4786 7.18399 20.3289 7.01858 20.143 6.90291C19.9572 6.78724 19.7427 6.72593 19.5238 6.72593C19.3049 6.72593 19.0903 6.78724 18.9045 6.90291C18.7187 7.01858 18.5689 7.18399 18.4723 7.3804C17.1808 10.0044 14.4495 11.1221 10.1227 10.7962C9.83086 10.7742 9.54136 10.8622 9.31106 11.0427C9.08075 11.2233 8.92627 11.4835 8.87797 11.7721C8.11449 16.3522 8.82845 20.803 10.9429 24.6424C12.8374 28.083 15.7194 30.7752 19.0573 32.2223C19.2044 32.2861 19.363 32.3191 19.5234 32.3191C19.6838 32.3191 19.8425 32.2861 19.9896 32.2223C23.3274 30.775 26.2091 28.083 28.1039 24.6424C30.2184 20.803 30.9324 16.3525 30.1689 11.7721C30.1212 11.4834 29.967 11.2231 29.7369 11.0424C29.5067 10.8618 29.2172 10.7739 28.9254 10.7962ZM19.5238 29.8587C14.6098 27.4857 10.0999 21.431 11.0452 13.1888C14.889 13.2799 17.7311 12.2285 19.5238 10.0553C21.2453 12.1423 23.9326 13.1944 27.5485 13.1943C27.6982 13.1943 27.8495 13.1924 28.0025 13.1888C28.9476 21.431 24.4378 27.4849 19.5238 29.8583V29.8587ZM24.5133 17.3034L19.8972 23.1881C19.7984 23.3142 19.6748 23.4187 19.534 23.4951C19.3933 23.5716 19.2383 23.6183 19.0787 23.6325C19.0442 23.6356 19.0096 23.6371 18.9752 23.6371C18.6874 23.6372 18.4096 23.5312 18.1949 23.3396L14.6759 20.1987C14.4495 19.9902 14.3142 19.7011 14.2992 19.3938C14.2841 19.0865 14.3906 18.7855 14.5955 18.556C14.8005 18.3265 15.0875 18.1868 15.3945 18.1671C15.7016 18.1473 16.0041 18.2492 16.2368 18.4506L18.8239 20.7599L22.6693 15.8575C22.8615 15.6143 23.1424 15.4571 23.4503 15.4205C23.7582 15.3838 24.068 15.4707 24.312 15.6621C24.556 15.8535 24.7141 16.1338 24.7519 16.4415C24.7896 16.7493 24.7038 17.0595 24.5133 17.3041V17.3034Z" fill="white"/>
</g>
<defs>
<clipPath id="clip0_774_8447">
<rect width="50" height="50" fill="white"/>
</clipPath>
</defs>
</svg>
