<svg width="30" height="30" viewBox="0 0 30 30" fill="none" xmlns="http://www.w3.org/2000/svg">
<path d="M14.9999 17.9998C14.4476 17.9998 13.9999 17.5521 13.9999 16.9998C13.9999 16.4476 14.4476 15.9999 14.9999 15.9999C15.5521 15.9999 15.9998 16.4476 15.9998 16.9998H16.9997C16.9963 16.0907 16.3801 15.2983 15.4998 15.071V14.5H14.4999V15.071C13.4324 15.3457 12.7898 16.4338 13.0645 17.5013C13.2917 18.3841 14.0882 19.0008 14.9999 18.9997C15.5521 18.9997 15.9998 19.4474 15.9998 19.9996C15.9998 20.5519 15.5521 20.9996 14.9999 20.9996C14.4476 20.9996 13.9999 20.5519 13.9999 19.9996H13C13.0034 20.9088 13.6196 21.7012 14.4999 21.9285V22.4995H15.4998V21.9285C16.5673 21.6538 17.21 20.5657 16.9352 19.4982C16.708 18.6153 15.9115 17.9986 14.9999 17.9998Z" fill="#E9D954"/>
<path d="M14.9996 12C11.4099 12 8.5 14.9099 8.5 18.4996C8.5 22.0892 11.4099 24.9991 14.9996 24.9991C18.5892 24.9991 21.4991 22.0892 21.4991 18.4996C21.495 14.9117 18.5875 12.0041 14.9996 12ZM14.9996 23.9992C11.9622 23.9992 9.49993 21.5369 9.49993 18.4996C9.49993 15.4622 11.9622 12.9999 14.9996 12.9999C18.0369 12.9999 20.4992 15.4622 20.4992 18.4996C20.4956 21.5354 18.0354 23.9956 14.9996 23.9992Z" fill="white"/>
<path d="M29.5 10.9994C29.6326 10.9994 29.7598 10.9467 29.8536 10.853C29.9473 10.7592 30 10.632 30 10.4994V8.49956C30 8.49306 29.9965 8.48806 29.9965 8.48156C29.9946 8.42697 29.9836 8.37307 29.964 8.32207C29.964 8.31607 29.964 8.30907 29.9595 8.30307C29.9352 8.2485 29.9014 8.19872 29.8595 8.15608C29.8447 8.14294 29.8292 8.13059 29.813 8.11909C29.7906 8.09791 29.7664 8.07883 29.7405 8.06209L15.2415 0.062624C15.1676 0.0215539 15.0845 0 15 0C14.9155 0 14.8324 0.0215539 14.7585 0.062624L0.259483 8.06209C0.233622 8.07883 0.209355 8.09791 0.186988 8.11909C0.170849 8.13059 0.155329 8.14294 0.140491 8.15608C0.0986482 8.19872 0.0647821 8.2485 0.0404973 8.30307C0.0404973 8.30907 0.0404973 8.31607 0.0359976 8.32207C0.0163947 8.37307 0.00541219 8.42697 0.00349977 8.48156C0.00349977 8.48806 0 8.49306 0 8.49956V10.4994C0 10.632 0.0526749 10.7592 0.146437 10.853C0.240199 10.9467 0.367367 10.9994 0.499967 10.9994H2.00187V25.9984H0.501966C0.369367 25.9984 0.242199 26.0511 0.148437 26.1448C0.0546748 26.2386 0.00199987 26.3658 0.00199987 26.4984V29.4982C0.00199987 29.6308 0.0546748 29.7579 0.148437 29.8517C0.242199 29.9455 0.369367 29.9981 0.501966 29.9981H29.5C29.6326 29.9981 29.7598 29.9455 29.8536 29.8517C29.9473 29.7579 30 29.6308 30 29.4982V26.4984C30 26.3658 29.9473 26.2386 29.8536 26.1448C29.7598 26.0511 29.6326 25.9984 29.5 25.9984H28.0001V10.9994H29.5ZM15.001 1.07106L27.5587 7.99959H2.44334L15.001 1.07106ZM29.0001 26.9983V28.9982H1.00193V26.9983H29.0001ZM3.0018 25.9984V10.9994H5.00167V25.9984H3.0018ZM6.0016 25.9984V10.9994H24.0004V25.9984H6.0016ZM25.0003 25.9984V10.9994H27.0002V25.9984H25.0003ZM1.00193 9.99946V8.99953H29.0001V9.99946H1.00193Z" fill="white"/>
</svg>
